<?xml version="1.0" encoding="UTF-8" standalone="no"?>
<svg
   version="1.1"
   id="Layer_1"
   x="0px"
   y="0px"
   width="330"
   viewBox="0 0 330 332"
   enable-background="new 0 0 900 333"
   xml:space="preserve"
   sodipodi:docname="favicon.svg"
   inkscape:version="1.3.2 (1:1.3.2+202311252150+091e20ef0f)"
   height="332"
   xmlns:inkscape="http://www.inkscape.org/namespaces/inkscape"
   xmlns:sodipodi="http://sodipodi.sourceforge.net/DTD/sodipodi-0.dtd"
   xmlns="http://www.w3.org/2000/svg"
   xmlns:svg="http://www.w3.org/2000/svg"><defs
   id="defs126" /><sodipodi:namedview
   id="namedview126"
   pagecolor="#ffffff"
   bordercolor="#111111"
   borderopacity="1"
   inkscape:showpageshadow="0"
   inkscape:pageopacity="0"
   inkscape:pagecheckerboard="1"
   inkscape:deskcolor="#d1d1d1"
   inkscape:zoom="2.1233333"
   inkscape:cx="455.6515"
   inkscape:cy="141.75824"
   inkscape:window-width="2560"
   inkscape:window-height="1375"
   inkscape:window-x="0"
   inkscape:window-y="0"
   inkscape:window-maximized="1"
   inkscape:current-layer="Layer_1" />




<path
   fill="#8b7741"
   opacity="1"
   stroke="none"
   d="m 283.91626,252.73102 c -6.55698,9.87527 -14.05045,19.03149 -23.12576,26.6185 -7.47324,6.24762 -15.32955,12.19638 -23.65535,17.21759 -7.52904,4.54071 -15.68199,8.35028 -23.99868,11.20263 -9.81394,3.36591 -19.98031,6.73072 -30.20883,7.61789 -14.92085,1.29426 -30.14627,1.53299 -45.03201,0.0767 -14.52692,-1.42114 -28.44247,-6.62219 -41.704094,-13.0371 C 81.115471,295.13462 67.380112,285.83665 55.60973,273.93354 50.023819,268.28465 45.329048,261.75456 40.539642,255.128 c 8.202099,-1.03455 16.095124,-1.57344 24.206658,-1.83974 1.223877,1.22061 2.22924,2.16863 3.25859,3.33461 0.487381,0.59989 0.950783,0.98188 1.686081,1.0672 3.271019,-3.14164 6.270134,-5.98669 9.355935,-8.42279 1.880805,0.85018 3.652313,1.4857 5.473136,1.69766 6.477684,0.75409 12.972153,1.36393 19.337208,2.34049 -5.999531,6.49295 -11.875995,12.67383 -17.659038,18.75641 -0.02162,-0.01 0.93042,0.19848 1.611557,0.74444 8.448791,6.77207 17.933721,11.54938 28.046771,15.34916 21.90333,8.22973 44.21232,9.96194 67.30471,6.21716 18.1908,-2.94989 34.67098,-9.7883 49.75097,-19.88849 7.97854,-5.34381 14.929,-12.22266 22.63182,-18.47199 0.68939,-0.67335 1.09057,-1.28317 1.58136,-2.20957 1.31387,-1.49183 2.53811,-2.66704 4.23785,-3.82784 6.68207,0.0182 12.89475,-0.11917 19.08991,0.14916 1.18978,0.0515 2.31051,1.69702 3.4631,2.60716 z"
   id="path5" />
<path
   fill="#e5d189"
   opacity="1"
   stroke="none"
   d="M 52.224682,65.014229 C 57.44672,60.053967 62.390823,54.7542 67.948738,50.20422 c 11.5233,-9.433533 24.441094,-16.681549 38.254982,-22.179123 23.18866,-9.228489 47.24066,-11.614748 72.03124,-9.218594 17.35774,1.677727 33.65244,6.742152 49.17838,14.144871 13.43786,6.407127 25.87298,14.603195 36.01775,25.740833 -8.06827,0.304394 -15.82103,0.331269 -23.57349,0.292149 -2.1398,-0.0108 -4.10504,0.0066 -4.20614,2.955501 -14.13672,-8.510429 -28.31549,-16.003688 -44.27297,-19.731456 -15.69635,-3.666767 -31.46078,-4.32042 -47.39154,-2.297169 -16.75197,2.127544 -32.42418,7.381603 -46.850247,16.229389 -4.715492,2.892101 -9.434547,5.778397 -14.159065,8.272907 -0.908165,-1.382984 -1.9282,-3.312095 -2.692009,-3.215488 -8.225479,1.040417 -17.217727,-3.451332 -24.707153,3.314037 -0.698864,0.631295 -2.216385,0.356324 -3.353794,0.502152 z"
   id="path6" />


<path
   fill="#e2cd84"
   opacity="1"
   stroke="none"
   d="m 236.00738,61.973831 c -0.25482,-2.982921 1.71042,-3.000271 3.85022,-2.989475 7.75246,0.03912 15.50522,0.01225 23.73243,0.0029 3.6806,3.140869 6.88665,6.289089 10.35266,9.944035 0.44815,0.774131 0.69528,0.965225 1.0014,1.080001 13.19351,15.444565 22.99585,32.776688 28.60596,52.588738 -7.28369,0.42594 -14.12174,0.45735 -21.20718,0.27454 -0.7829,-1.24011 -1.44471,-2.22035 -1.83475,-3.29888 -4.83414,-13.36734 -12.50076,-25.023855 -21.64356,-35.994871 -0.23367,-0.327324 -0.41577,-0.4589 -0.7937,-0.791046 -0.47064,-0.751816 -0.78128,-1.25354 -1.1174,-2.066681 -0.60321,-0.799698 -1.18092,-1.287971 -2.08154,-1.86499 -0.53983,-0.141518 -0.75675,-0.194267 -1.09712,-0.340073 -0.46839,-0.117859 -0.6883,0.05201 -0.77852,0.448425 0.005,0.03185 -0.0595,0.02719 -0.26651,0.138321 -0.46411,0.30967 -0.63982,0.564385 -0.73073,0.885865 0.003,0.01057 -0.0181,0.0058 -0.23302,0.115738 -0.48332,0.309806 -0.66395,0.570541 -0.90753,1.195831 -6.85831,7.049461 -13.4893,13.873588 -20.29443,20.519401 -7.06522,6.89981 -14.29894,13.62705 -21.56073,20.01083 -1.5447,-0.89029 -2.98143,-1.7451 -4.4316,-1.76853 -7.42107,-0.11984 -14.84556,-0.0254 -22.2047,-0.32541 7.67238,-7.74406 15.27803,-15.17113 22.88953,-22.592213 6.55437,-6.390381 13.1154,-12.773911 19.92394,-19.292229 0.46019,-0.63887 0.66996,-1.145973 1.04966,-1.945114 3.69425,-3.495689 7.21857,-6.699348 11.02932,-10.035614 0.12583,-1.052711 -0.0348,-1.972797 -0.42937,-2.991074 -0.43025,-0.368278 -0.62648,-0.638366 -0.82273,-0.908447 z"
   id="path9" />


<path
   fill="#e2cd84"
   opacity="1"
   stroke="none"
   d="m 52.041473,65.266495 c 1.320618,-0.398094 2.838139,-0.123123 3.537003,-0.754418 7.489426,-6.765369 16.481674,-2.27362 24.707153,-3.314037 0.763809,-0.09661 1.783844,1.832504 2.444817,3.421124 -0.818817,1.208061 -1.397537,1.816032 -2.134972,2.520942 -0.35392,0.261193 -0.490715,0.46473 -0.884323,0.842133 -3.21418,2.779983 -6.113144,5.425384 -9.14933,8.152847 -0.307289,0.218987 -0.433746,0.388458 -0.791954,0.779007 -1.135895,1.148918 -1.996452,2.109306 -3.039536,3.163101 -0.414573,0.252098 -0.585189,0.460968 -1.038269,0.805428 -5.166324,6.845245 -10.343567,13.385208 -14.708248,20.428698 -4.102703,6.62073 -7.347545,13.77306 -11.439247,20.69082 -7.200779,-0.006 -13.932138,-0.0104 -20.663498,-0.0152 2.996376,-7.58247 5.331513,-15.5196 9.159231,-22.656186 4.615149,-8.604691 10.497252,-16.529846 16.15724,-25.147003 0.532131,-0.555024 0.680989,-0.754677 0.772885,-0.996819 0.314373,-0.226517 0.628746,-0.453033 1.455928,-0.941078 1.192383,-1.274468 1.871956,-2.287415 2.551529,-3.300362 0.04525,-0.172989 0.0905,-0.345978 0.396973,-0.889732 0.453487,-0.579971 0.570213,-0.825188 0.611404,-1.106423 0.624001,-0.476844 1.248002,-0.953689 2.055214,-1.682792 z"
   id="path12" />




























<path
   fill="#d9c37b"
   opacity="1"
   stroke="none"
   d="m 282.59024,123.0888 c 6.83807,-0.0314 13.67612,-0.0628 20.98721,-0.0998 2.07468,6.07814 3.67627,12.16185 4.74732,18.63489 -7.10288,0.38136 -13.67514,0.3734 -20.52906,0.12134 -1.92291,-6.38156 -3.56417,-12.51901 -5.20547,-18.65647 z"
   id="path41" />
<path
   fill="#947f47"
   opacity="1"
   stroke="none"
   d="m 284.22113,252.6021 c -1.45746,-0.78122 -2.57819,-2.4267 -3.76797,-2.47824 -6.19516,-0.26833 -12.40784,-0.13093 -19.03452,-0.4999 3.24829,-5.45163 6.9166,-10.53813 11.05322,-15.62076 5.90757,0.002 11.3526,-0.13992 16.78247,0.0843 1.58493,0.0655 3.1268,1.17385 4.68839,1.8042 -3.13892,5.52715 -6.2778,11.05429 -9.72159,16.71038 z"
   id="path42" />
<path
   fill="#ccb672"
   opacity="1"
   stroke="none"
   d="m 288.07736,141.98935 c 6.57227,0.008 13.14453,0.0159 20.1583,0.031 1.13629,6.04871 1.83105,12.09034 1.9924,18.56476 -6.97516,0.43419 -13.4169,0.43558 -19.98496,0.0134 -0.80618,-6.48543 -1.48596,-12.5473 -2.16574,-18.60919 z"
   id="path43" />

<path
   fill="#af9a5d"
   opacity="1"
   stroke="none"
   d="m 18.771687,212.42633 c -1.675187,-6.49417 -3.350375,-12.98836 -4.64399,-20.08435 2.214964,-1.18202 4.027409,-2.1665 5.885874,-2.2628 4.642935,-0.24056 9.306762,-0.0778 14.095995,0.28891 1.354194,5.795 2.5746,11.22416 3.333221,16.64781 -6.524013,0.0443 -12.586243,0.0941 -18.6711,0.14401 0,2.65474 0,3.96059 0,5.26642 z"
   id="path45" />
<path
   fill="#baa666"
   opacity="1"
   stroke="none"
   d="m 33.975777,190.00226 c -4.655444,-9e-4 -9.319271,-0.16364 -13.962206,0.0769 -1.858465,0.0963 -3.67091,1.08078 -5.874375,1.8289 -0.950418,-5.55354 -1.530763,-11.27505 -1.622856,-17.45418 6.487089,-0.78645 12.485928,-1.11529 18.738024,-1.4373 0.589802,0.0216 0.926342,0.0364 1.3871,0.4017 0.52758,5.76165 0.930947,11.17279 1.334313,16.58396 z"
   id="path46" />
<path
   fill="#c0ab67"
   opacity="1"
   stroke="none"
   d="m 290.36945,161.02209 c 6.44171,-0.001 12.88345,-0.003 19.75811,0.004 0.53711,5.02319 0.64127,10.03843 0.2999,15.5151 -7.04968,0.46322 -13.65384,0.46496 -20.32739,0.003 0.0435,-5.48302 0.15646,-10.50255 0.26938,-15.52207 z"
   id="path47" />
<path
   fill="#9c884f"
   opacity="1"
   stroke="none"
   d="m 294.23889,235.72311 c -1.85776,-0.46174 -3.39963,-1.57013 -4.98456,-1.63559 -5.42987,-0.22424 -10.8749,-0.0826 -16.74353,-0.4367 1.96872,-4.77979 4.36679,-9.20333 7.21607,-13.63181 7.34012,0.30826 14.22897,0.62146 21.11786,0.93463 -2.10324,4.86696 -4.20645,9.73392 -6.60584,14.76947 z"
   id="path48" />
<path
   fill="#b8a364"
   opacity="1"
   stroke="none"
   d="m 290.16943,177.00766 c 6.60419,-0.002 13.20835,-0.003 20.21082,-0.002 -0.20853,4.73944 -0.81537,9.47513 -1.99161,14.60694 -7.10522,0.39816 -13.64102,0.4002 -20.25717,-0.016 0.62576,-5.14197 1.33188,-9.8657 2.03796,-14.58942 z"
   id="path49" />
<path
   fill="#af9a5d"
   opacity="1"
   stroke="none"
   d="m 288.21182,192.01532 c 6.5358,-0.002 13.0716,-0.004 20.05484,-0.002 -0.54178,4.85054 -1.53097,9.69693 -3.26968,14.77801 -7.39371,0.23222 -14.0379,0.22974 -20.70349,-0.15405 0.8168,-3.12657 1.65503,-5.87186 2.70065,-8.69837 0.2153,-0.6743 0.22318,-1.26738 0.20612,-2.21426 0.32052,-1.47234 0.66604,-2.59084 1.01156,-3.70935 z"
   id="path50" />
<path
   fill="#947f47"
   opacity="1"
   stroke="none"
   d="m 64.527794,253.01566 c -7.893028,0.53889 -15.786053,1.07778 -24.05481,1.7826 -1.957981,-1.94334 -3.540229,-4.05259 -5.394516,-6.66493 -0.441505,-0.78554 -0.676578,-0.99408 -0.977253,-1.12868 -0.02219,-0.18231 -0.04438,-0.36462 -0.06958,-1.23799 -0.302135,-3.62311 1.554077,-3.81024 3.767044,-3.78656 5.954647,0.0638 11.910309,0.0322 18.120293,0.27857 3.039421,3.74574 5.824119,7.25136 8.608818,10.75699 z"
   id="path51" />
<path
   fill="#ccb672"
   opacity="1"
   stroke="none"
   d="m 12.163207,160.01334 c 0.304618,-4.38541 0.609236,-8.77083 1.384505,-13.57987 7.053007,-0.4232 13.635363,-0.42279 20.259463,6.9e-4 -0.632569,6.13005 -1.306881,11.83703 -2.231678,17.28175 -1.894802,-1.41319 -3.458771,-3.38649 -5.19892,-3.5565 -4.697702,-0.459 -9.470419,-0.15021 -14.21337,-0.14607 z"
   id="path52" />
<path
   fill="#a59056"
   opacity="1"
   stroke="none"
   d="m 284.31488,207.0186 c 6.6442,0.002 13.28839,0.005 20.41705,0.0284 0.36707,0.75744 0.24961,1.49398 -0.25665,2.6354 -0.41013,1.04482 -0.43143,1.68479 -0.45273,2.32474 -0.86578,2.83659 -1.7316,5.6732 -2.8876,8.72815 -7.17911,-0.0948 -14.06796,-0.40802 -21.33862,-1.06489 1.25167,-4.44639 2.88513,-8.54909 4.51855,-12.6518 z"
   id="path53" />
<path
   fill="#d4be77"
   opacity="1"
   stroke="none"
   d="m 33.76543,146.01111 c -6.582355,-4.3e-4 -13.164711,-8.4e-4 -20.15846,0.001 0.225844,-3.7307 0.863084,-7.46402 2.01816,-11.59905 7.21406,-0.38879 13.91028,-0.37587 20.548748,-0.0114 -0.114365,0.822 -0.170971,1.29245 -0.223606,1.92352 0.004,0.1606 -0.0113,0.48154 -0.06132,0.87521 -0.741196,3.19924 -1.432358,6.0048 -2.123517,8.81037 z"
   id="path54" />
<path
   fill="#c3ae6b"
   opacity="1"
   stroke="none"
   d="m 12.111794,160.26352 c 4.794364,-0.25432 9.567081,-0.56311 14.264783,-0.10411 1.740149,0.17001 3.304118,2.14331 5.264723,3.99556 0.282574,2.76819 0.24886,4.83505 -0.0078,7.07269 -0.359429,0.7079 -0.495907,1.24501 -0.632386,1.78211 -5.998838,0.32884 -11.997677,0.65768 -18.458614,0.98199 -0.789731,-2.38536 -1.117361,-4.76624 -1.024788,-7.65186 0.462124,-2.1083 0.504046,-3.71186 0.545969,-5.31541 -0.0011,-0.17027 -0.0022,-0.34053 0.04812,-0.76097 z"
   id="path55" />
<path
   fill="#a59056"
   opacity="1"
   stroke="none"
   d="m 18.790012,212.80005 c -0.01833,-1.67955 -0.01833,-2.9854 -0.01833,-5.64014 6.084857,-0.0499 12.147087,-0.0998 18.944927,0.12372 1.93676,3.70751 3.137905,7.14175 4.087295,10.88492 -4.917099,0.81624 -9.603058,1.18841 -14.237981,1.89523 -1.943713,0.29642 -3.779324,1.30173 -5.664084,1.98474 -1.031168,-2.95825 -2.062336,-5.91652 -3.111832,-9.24847 z"
   id="path56" />
<path
   fill="#9a864c"
   opacity="1"
   stroke="none"
   d="m 55.664253,242.01855 c -5.955261,-0.006 -11.910923,0.0254 -17.86557,-0.0385 -2.212967,-0.0237 -4.069179,0.16345 -3.767208,3.51111 -2.51812,-3.90646 -5.039076,-8.2285 -7.170734,-13.07925 7.529586,-0.81098 14.669872,-1.09327 21.914726,-1.35727 0.104565,0.0183 0.114586,0.22973 0.141285,0.51901 0.501976,1.0081 0.977257,1.72693 1.725349,2.68799 1.855927,2.74711 3.439038,5.252 5.022152,7.75686 z"
   id="path57" />
<path
   fill="#a48e52"
   opacity="1"
   stroke="none"
   d="m 48.670898,231.03642 c -7.140285,0.28227 -14.280571,0.56456 -21.865291,0.9991 -1.871067,-2.98942 -3.297701,-6.13109 -4.814049,-9.62988 1.795046,-1.04013 3.630657,-2.04544 5.57437,-2.34186 4.634923,-0.70682 9.320882,-1.07899 14.50789,-1.67375 2.546799,4.15718 4.571938,8.40178 6.59708,12.64639 z"
   id="path58" />
<path
   fill="#dcc67d"
   opacity="1"
   stroke="none"
   d="m 36.231632,134.05046 c -6.696222,-0.0129 -13.392442,-0.0258 -20.501451,-0.0311 0.674814,-3.78839 1.762417,-7.58445 3.000454,-11.7065 6.881794,-0.32113 13.613153,-0.31627 20.796945,0.0846 -0.797027,4.14833 -2.046486,7.90066 -3.295948,11.65298 z"
   id="path59" />

<path
   fill="#ccb672"
   opacity="1"
   stroke="none"
   d="m 11.800449,161.28389 c 0.221301,1.34415 0.179379,2.94771 -0.189794,4.63887 -0.242644,-1.4014 -0.158036,-2.89044 0.189794,-4.63887 z"
   id="path61" />
<path
   fill="#e5d189"
   opacity="1"
   stroke="none"
   d="m 48.696564,69.069901 c -0.398255,0.888488 -1.077828,1.901435 -2.109825,2.929901 0.374553,-0.924805 1.101532,-1.865128 2.109825,-2.929901 z"
   id="path62" />
<path
   fill="#af9a5d"
   opacity="1"
   stroke="none"
   d="m 304.27997,211.85782 c -0.23612,-0.49063 -0.21482,-1.1306 0.0695,-1.82434 0.238,0.52247 0.21298,1.09875 -0.0695,1.82434 z"
   id="path63" />
<path
   fill="#e5d189"
   opacity="1"
   stroke="none"
   d="m 44.753143,73.205673 c 0.125386,0.223351 -0.02347,0.423004 -0.393959,0.670731 -0.233921,-0.24115 -0.12014,-0.488655 0.393959,-0.670731 z"
   id="path64" />
<path
   fill="#e5d189"
   opacity="1"
   stroke="none"
   d="m 49.812393,67.069916 c 0.132675,0.160606 0.01595,0.405823 -0.338409,0.736572 -0.193405,-0.186287 -0.08453,-0.432121 0.338409,-0.736572 z"
   id="path65" />
<path
   fill="#e5d189"
   opacity="1"
   stroke="none"
   d="m 274.88196,69.769196 c -0.24399,0.127342 -0.49112,-0.06375 -0.7818,-0.545105 0.25595,-0.175873 0.53003,-0.0036 0.7818,0.545105 z"
   id="path66" />
<path
   fill="#9a864c"
   opacity="1"
   stroke="none"
   d="m 34.062683,247.28741 c 0.339207,-0.14816 0.57428,0.0604 0.827705,0.56626 -0.232776,0.0544 -0.549503,-0.11453 -0.827705,-0.56626 z"
   id="path67" />




<path
   fill="#947f47"
   opacity="1"
   stroke="none"
   d="m 106.01971,251.05724 c -0.49423,0.58692 -0.98845,1.17385 -1.76104,1.84843 -6.766475,-0.57681 -13.260944,-1.18665 -19.738628,-1.94074 -1.820823,-0.21196 -3.592331,-0.84748 -5.473136,-1.69766 3.677909,-4.29146 7.442482,-8.17399 11.941574,-12.16137 7.178665,0.22808 13.6207,0.7398 20.06789,0.8159 3.06125,0.0361 4.33675,1.02095 3.93074,4.0446 -2.47818,2.56274 -4.95635,5.1255 -7.9393,7.97528 -0.77893,0.50021 -0.95337,0.7764 -1.0281,1.11556 z"
   id="path72" />
<path
   fill="#947f47"
   opacity="1"
   stroke="none"
   d="m 255.54405,256.01211 c 0.10282,-0.54837 0.49385,-1.16027 1.18831,-1.83259 -0.0978,0.54942 -0.49893,1.15924 -1.18831,1.83259 z"
   id="path73" />
<path
   fill="#947f47"
   opacity="1"
   stroke="none"
   d="m 68.004883,256.62286 c 0.389747,0.11228 0.803482,0.44251 1.315704,1.0683 -0.364914,-0.0864 -0.828316,-0.46841 -1.315704,-1.0683 z"
   id="path74" />
<path
   fill="#ddc77e"
   opacity="1"
   stroke="none"
   d="m 209.00333,121.83247 c -5.39504,6.30487 -10.89183,12.1908 -15.963,17.62094 -5.24387,-4.83575 -10.20812,-9.41366 -15.35404,-14.15911 1.53255,-1.89036 2.76255,-3.40753 4.30455,-5.08045 7.73533,-0.17528 15.15982,-0.26976 22.58089,-0.14992 1.45017,0.0234 2.8869,0.87824 4.4316,1.76854 z"
   id="path75" />
<path
   fill="#e5d189"
   opacity="1"
   stroke="none"
   d="m 237.25949,65.873352 c -0.25151,-0.623459 -0.21658,-1.379532 -0.18851,-2.514244 0.15374,0.541447 0.31433,1.461533 0.18851,2.514244 z"
   id="path76" />
<path
   fill="#e5d189"
   opacity="1"
   stroke="none"
   d="m 256.95346,80.723106 c -0.56198,-0.173042 -1.14946,-0.657501 -1.7478,-1.459098 0.56688,0.171135 1.14459,0.659408 1.7478,1.459098 z"
   id="path77" />
<path
   fill="#e5d189"
   opacity="1"
   stroke="none"
   d="m 225.1805,77.85408 c -0.0631,-0.413566 0.12416,-0.958893 0.59559,-1.578644 0.0744,0.432671 -0.1354,0.939774 -0.59559,1.578644 z"
   id="path78" />
<path
   fill="#e5d189"
   opacity="1"
   stroke="none"
   d="m 253.7748,78.518051 c 0.12345,0.09305 -0.30448,0.326454 -0.54384,0.371514 -0.14446,-0.319504 0.0754,-0.489373 0.54384,-0.371514 z"
   id="path79" />
<path
   fill="#e5d189"
   opacity="1"
   stroke="none"
   d="m 252.72977,79.104797 c 0.15211,0.224274 -0.0151,0.48861 -0.51435,0.778595 -0.12547,-0.21421 0.0502,-0.468925 0.51435,-0.778595 z"
   id="path80" />
<path
   fill="#e5d189"
   opacity="1"
   stroke="none"
   d="m 251.76602,80.1064 c 0.16565,0.239074 -0.005,0.512786 -0.52635,0.801666 -0.1376,-0.231125 0.043,-0.49186 0.52635,-0.801666 z"
   id="path81" />
<path
   fill="#e5d189"
   opacity="1"
   stroke="none"
   d="m 258.86456,83.580841 c -0.2175,0.230179 -0.44677,0.134026 -0.61703,-0.341583 0.20126,-0.117317 0.38336,0.01426 0.61703,0.341583 z"
   id="path82" />
<path
   fill="#e5d189"
   opacity="1"
   stroke="none"
   d="m 70.561821,76.135086 c 0.209358,0.204132 0.116165,0.418243 -0.329491,0.575378 -0.104255,-0.18692 0.0222,-0.356391 0.329491,-0.575378 z"
   id="path83" />
<path
   fill="#e5d189"
   opacity="1"
   stroke="none"
   d="m 80.595474,67.140106 c 0.237992,0.224358 0.1343,0.467575 -0.360725,0.67012 -0.12999,-0.20539 0.0068,-0.408927 0.360725,-0.67012 z"
   id="path84" />
<path
   fill="#e5d189"
   opacity="1"
   stroke="none"
   d="m 66.730331,80.077194 c 0.187821,0.243996 0.04674,0.500939 -0.467559,0.698715 -0.11763,-0.237747 0.05299,-0.446617 0.467559,-0.698715 z"
   id="path85" />




<path
   fill="#ccb672"
   opacity="1"
   stroke="none"
   d="m 31.633492,171.22766 c 0.489067,0.30908 0.75518,0.78897 0.952526,1.55451 -0.405312,0.27085 -0.741852,0.25607 -1.331652,0.23443 -0.116781,-0.54393 0.0197,-1.08104 0.379126,-1.78894 z"
   id="path90" />
<path
   fill="#b8a364"
   opacity="1"
   stroke="none"
   d="m 286.99411,197.93893 c -0.22028,-0.45695 -0.23312,-0.99513 -0.007,-1.69687 0.23066,0.42949 0.22278,1.02257 0.007,1.69687 z"
   id="path91" />
<path
   fill="#dcc67d"
   opacity="1"
   stroke="none"
   d="m 35.950272,136.32553 c -0.004,-0.16061 0.404884,0.0442 0.404884,0.0442 0,0 -0.100044,0.37398 -0.25811,0.40567 -0.15807,0.0317 -0.142803,-0.28926 -0.146774,-0.44986 z"
   id="path92" />
<path
   fill="#a48e52"
   opacity="1"
   stroke="none"
   d="m 48.916748,231.5737 c 0.503456,0.42905 1.033611,1.14737 1.508152,2.15572 -0.530891,-0.42879 -1.006172,-1.14762 -1.508152,-2.15572 z"
   id="path93" />
<path
   fill="#e2cd87"
   opacity="1"
   stroke="none"
   d="m 123.77506,120.10367 c -1.10344,-0.60794 -2.20688,-1.21586 -3.67556,-2.02501 -0.19758,2.80113 -0.35732,5.06583 -1.2149,7.6318 -6.99986,0.30942 -13.30188,0.31755 -19.603899,0.32568 0,-17.08425 0,-34.168495 0,-51.200157 10.049099,-2.669906 15.261889,-0.652305 21.653139,7.72834 8.4656,11.100678 17.12396,22.054287 25.6786,33.087277 0.39852,0.51397 0.59364,1.18565 0.60527,2.09158 -2.16127,0.37053 -4.05418,0.33228 -5.92555,0.51492 -5.84341,0.57032 -11.67868,1.22413 -17.5171,1.84557 z"
   id="path94" />
<path
   fill="#a59056"
   opacity="1"
   stroke="none"
   d="m 216.12152,206.76294 c 0.75545,0.70108 1.5109,1.40217 2.60431,2.54028 0.76977,0.72673 1.20158,1.01644 1.63338,1.30612 0.20569,-0.53845 0.41136,-1.07692 0.63475,-1.87472 -0.15395,-0.73061 -0.32561,-1.20186 -0.49729,-1.6731 -0.0389,-0.43919 -0.0777,-0.8784 0.0819,-1.62591 0.19849,-0.30832 0.41277,-0.32366 0.69184,-0.0657 6.25853,0.9539 12.23799,1.64985 18.24949,2.34953 0.38429,2.74991 0.76473,5.4722 1.14516,8.19447 0.0516,2.07869 0.10329,4.15738 -0.3049,6.68047 -9.76955,0.76448 -19.08418,0.99063 -28.38487,1.4814 -1.93412,0.10204 -3.81652,1.18437 -5.72275,1.81493 -4.36656,-5.40851 -8.73313,-10.81702 -12.79738,-16.72129 5.40974,-0.72078 10.52383,-0.85174 15.62166,-1.21257 2.36456,-0.16737 4.69745,-0.78204 7.04469,-1.19392 z"
   id="path95" />
<path
   fill="#9a864c"
   opacity="1"
   stroke="none"
   d="m 206.30679,226.21803 c 1.85199,-0.95787 3.73439,-2.0402 5.66851,-2.14224 9.30069,-0.49077 18.61532,-0.71692 28.28668,-1.04645 0.36166,7.41294 0.36166,14.83531 0.36166,22.81916 -6.1754,0 -12.12964,0.33543 -18.00511,-0.19745 -1.84425,-0.16726 -3.78452,-2.4258 -5.14761,-4.14893 -3.85128,-4.86853 -7.42612,-9.95573 -11.16413,-15.28409 z"
   id="path96" />
<path
   fill="#ab9658"
   opacity="1"
   stroke="none"
   d="m 99.340836,213.01047 c -0.05431,-4.35585 -0.108605,-8.71172 0.359657,-13.53144 6.829447,-0.80969 13.136327,-1.15553 19.443207,-1.50137 0.0715,2.63287 0.14291,5.26576 0.14526,8.5394 0.17263,0.59747 0.41438,0.55415 0.65612,0.51083 2.43966,-2.27028 4.87931,-4.54056 8.04097,-6.88256 5.10941,0.085 9.54064,0.70014 13.87339,0.28573 5.77806,-0.55264 9.63957,0.80235 10.12292,4.52365 -0.2513,0.27518 -0.50261,0.55034 -1.18076,1.01569 -0.62213,0.35821 -0.76336,0.56344 -0.85058,0.80586 -2.11241,2.328 -4.22481,4.65601 -7.00217,6.94679 -3.04176,-0.59913 -5.42499,-1.66754 -7.79432,-1.63759 -11.9399,0.15091 -23.87616,0.58822 -35.813694,0.92501 z"
   id="path97" />
<path
   fill="#af9a5d"
   opacity="1"
   stroke="none"
   d="m 216.06198,206.42126 c -2.2877,0.75356 -4.62059,1.36823 -6.98515,1.5356 -5.09783,0.36083 -10.21192,0.49179 -15.70476,0.88188 -3.63947,-3.75207 -6.89355,-7.6692 -10.30954,-12.01676 -0.16191,-0.43044 -0.42134,-0.7846 -0.42134,-0.7846 -1.00108,-1.37411 -2.00218,-2.74823 -2.71254,-4.54498 8.09938,-0.7661 15.90805,-1.10954 23.71672,-1.45299 4.11902,5.34673 8.23804,10.69345 12.41661,16.38185 z"
   id="path98" />
<path
   fill="#a48e52"
   opacity="1"
   stroke="none"
   d="m 99.258614,213.46231 c 12.019756,-0.78863 23.956016,-1.22594 35.895916,-1.37685 2.36933,-0.03 4.75256,1.03846 7.48127,1.75454 -2.49054,3.08955 -5.33293,6.02496 -8.69388,9.11166 -0.74781,0.30522 -0.90966,0.51195 -1.00412,0.77145 -0.15272,0.32961 -0.30545,0.65923 -1.04611,0.9834 -2.98657,-0.56 -5.39062,-1.60637 -7.78281,-1.57991 -8.25751,0.0913 -16.51089,0.55673 -24.76584,0.87972 -0.05554,-3.36406 -0.111091,-6.72811 -0.08443,-10.54401 z"
   id="path99" />
<path
   fill="#baa666"
   opacity="1"
   stroke="none"
   d="m 203.65787,189.6998 c -7.82117,0.68306 -15.62984,1.0265 -23.91709,1.46303 -4.47699,-4.80056 -8.47541,-9.6942 -12.5807,-15.32149 1.13586,-1.43611 2.36404,-2.71301 3.62373,-2.74489 6.65239,-0.16837 13.31272,-0.0231 19.97028,0.0134 0,-1e-5 0.13374,-0.0398 0.17309,0.34427 0.6157,1.10832 1.19201,1.83254 1.76832,2.55675 3.65829,4.44975 7.31657,8.89951 10.96237,13.68889 z"
   id="path100" />
<path
   fill="#9c884f"
   opacity="1"
   stroke="none"
   d="m 99.260971,224.39828 c 8.337019,-0.71495 16.590399,-1.18038 24.847909,-1.27168 2.39219,-0.0265 4.79624,1.01991 7.54853,1.72777 -5.10302,5.75075 -10.55972,11.34819 -16.34337,17.02884 0.0791,-2.94046 -1.19642,-3.92529 -4.25767,-3.96141 -6.44719,-0.0761 -12.889225,-0.58782 -19.766819,-0.95192 1.465339,-2.07713 3.588997,-3.96352 5.190376,-6.22048 1.238716,-1.74581 1.823486,-3.95562 2.781044,-6.35112 z"
   id="path101" />
<path
   fill="#d7c17a"
   opacity="1"
   stroke="none"
   d="m 99.210274,126.49722 c 6.372446,-0.46921 12.674466,-0.47734 19.458496,-0.47109 0.50874,6.01783 0.53547,12.02129 0.0281,18.49595 -6.82042,0.48118 -13.10667,0.49116 -19.392934,0.50113 -0.05468,-6.02164 -0.109359,-12.04326 -0.09361,-18.52599 z"
   id="path102" />
<path
   fill="#b8a364"
   opacity="1"
   stroke="none"
   d="m 220.99135,205.11195 c 0,0 -0.21428,0.0153 -0.32016,0.004 -0.18025,-10.39511 -0.25463,-20.77905 0.21153,-31.62958 6.94545,-0.46213 13.35039,-0.45766 19.75531,-0.45318 0.0628,5.35577 0.1255,10.71154 -0.34924,16.52294 -5.51973,0.45215 -10.50501,0.55191 -15.48296,0.40435 -2.74174,-0.0813 -3.93834,0.82528 -3.82016,3.69409 0.15706,3.81267 0.0177,7.63757 0.006,11.45721 z"
   id="path103" />
<path
   fill="#c0ab67"
   opacity="1"
   stroke="none"
   d="m 119.13148,162.97665 c 0.0498,5.69397 0.0995,11.38793 -0.39024,17.54999 -6.83093,0.80942 -13.12236,1.15073 -19.413779,1.49204 -0.05249,-6.02042 -0.10498,-12.04082 0.360588,-18.53133 6.826521,-0.48363 13.134981,-0.49716 19.443431,-0.5107 z"
   id="path104" />
<path
   fill="#ccb672"
   opacity="1"
   stroke="none"
   d="m 119.19287,162.51392 c -6.36984,0.47627 -12.6783,0.4898 -19.42977,0.51367 -0.499901,-5.68726 -0.556786,-11.38481 -0.536446,-17.54338 6.363496,-0.47097 12.649746,-0.48095 19.416306,-0.49736 0.52396,5.6838 0.56763,11.37407 0.54991,17.52707 z"
   id="path105" />
<path
   fill="#c3ae6b"
   opacity="1"
   stroke="none"
   d="m 190.66699,172.78784 c -6.57046,0.28554 -13.23079,0.14024 -19.88318,0.30861 -1.25969,0.0319 -2.48787,1.30878 -3.74301,2.42036 -4.00279,-4.66059 -7.99316,-9.73036 -11.59317,-15.15209 8.18723,-0.72191 15.98412,-1.09183 23.78099,-1.46177 3.78375,4.52095 7.56752,9.04189 11.43837,13.88489 z"
   id="path106" />
<path
   fill="#b49f62"
   opacity="1"
   stroke="none"
   d="m 99.248337,182.47922 c 6.370543,-0.80185 12.661973,-1.14316 19.419753,-1.48992 0.5225,5.35242 0.57865,10.71029 0.55519,16.52825 -6.38646,0.80595 -12.69334,1.15179 -19.443655,1.505 -0.499092,-5.35603 -0.554756,-10.71942 -0.531288,-16.54333 z"
   id="path107" />
<path
   fill="#af9a5d"
   opacity="1"
   stroke="none"
   d="m 221.27042,205.36992 c -0.26706,-4.07761 -0.12769,-7.90251 -0.28475,-11.71518 -0.11818,-2.86881 1.07842,-3.77536 3.82016,-3.69409 4.97795,0.14756 9.96323,0.0478 15.38667,0.0548 0.51377,8.33319 0.58631,16.66289 0.56571,25.44554 -0.47357,-2.2693 -0.85401,-4.99159 -1.2383,-7.7415 -6.0115,-0.69968 -11.99096,-1.39563 -18.24949,-2.34953 z"
   id="path108" />
<path
   fill="#b49f62"
   opacity="1"
   stroke="none"
   d="m 152.3045,204.86331 c -0.80549,-3.6299 -4.667,-4.98489 -10.44506,-4.43225 -4.33275,0.41441 -8.76398,-0.20071 -13.57477,-0.42615 5.31617,-5.48684 11.05575,-10.905 17.22828,-16.73184 4.10593,4.68495 8.63501,9.85277 13.5195,15.4261 -1.43287,1.35837 -3.91932,3.71556 -6.72795,6.16414 z"
   id="path109" />
<path
   fill="#d4be77"
   opacity="1"
   stroke="none"
   d="m 240.69287,129.05608 c 0.0469,4.68081 0.0937,9.36164 -0.39,14.49754 -6.93919,0.45642 -13.34778,0.45775 -19.75635,0.45907 -0.0845,-5.00642 -0.16894,-10.01284 0.22573,-15.47912 6.95962,-0.1324 13.44014,0.19505 19.92062,0.52251 z"
   id="path110" />
<path
   fill="#c3ae6b"
   opacity="1"
   stroke="none"
   d="m 240.73611,172.57349 c -6.503,0.45539 -12.90794,0.45092 -19.73227,0.46498 -0.50669,-4.68578 -0.59402,-9.39008 -0.14285,-14.55791 6.95418,-0.45915 13.36987,-0.45476 19.78555,-0.45035 0.0626,4.69448 0.1251,9.38895 0.0896,14.54328 z"
   id="path111" />
<path
   fill="#ccb672"
   opacity="1"
   stroke="none"
   d="m 240.74254,157.57162 c -6.51168,0.45418 -12.92737,0.44979 -19.76335,0.46187 -0.50888,-4.36215 -0.59745,-8.7408 -0.55933,-13.57011 6.53523,-0.45201 12.94382,-0.45334 19.79187,-0.4516 0.50191,4.36913 0.56435,8.73521 0.53081,13.55984 z"
   id="path112" />
<path
   fill="#d1bb76"
   opacity="1"
   stroke="none"
   d="m 163.92973,139.02631 c 2.5835,3.12147 5.16698,6.24295 7.43015,9.68783 -4.68903,0.64404 -9.06142,0.92204 -13.42525,1.29898 -3.3717,0.29123 -6.73271,0.70644 -10.09846,1.06652 -2.69347,-3.40494 -5.38692,-6.80988 -7.7781,-10.62757 8.15876,-0.75042 16.01522,-1.0881 23.87166,-1.42576 z"
   id="path113" />
<path
   fill="#ddc77e"
   opacity="1"
   stroke="none"
   d="m 123.87766,120.43843 c 5.73582,-0.9562 11.57109,-1.61001 17.4145,-2.18033 1.87137,-0.18264 3.76428,-0.14439 6.00987,-0.197 2.80185,3.07984 5.24118,6.14946 7.30649,9.58386 -4.73289,0.69505 -9.09702,0.96907 -13.4489,1.37434 -3.19838,0.29785 -6.38074,0.76761 -9.57023,1.16077 -2.53638,-3.13563 -5.07277,-6.27125 -7.71173,-9.74164 z"
   id="path114" />
<path
   fill="#d7c17a"
   opacity="1"
   stroke="none"
   d="m 131.71335,130.51056 c 3.06553,-0.72365 6.24789,-1.19341 9.44627,-1.49126 4.35188,-0.40527 8.71601,-0.67929 13.50704,-1.02995 3.31182,3.44984 6.19146,6.92004 9.16709,10.71359 -7.76046,0.66103 -15.61692,0.99871 -23.94203,1.43759 -2.99725,-3.03236 -5.52583,-6.16591 -8.17837,-9.62997 z"
   id="path115" />
<path
   fill="#ccb672"
   opacity="1"
   stroke="none"
   d="m 147.91412,151.36844 c 3.2878,-0.64888 6.64881,-1.06409 10.02051,-1.35532 4.36383,-0.37694 8.73622,-0.65494 13.51584,-0.97761 2.80484,3.06373 5.19876,6.12953 7.68542,9.53138 -7.70414,0.706 -15.50103,1.07592 -23.7763,1.45465 -1.71015,-1.41629 -2.9419,-2.8414 -4.30801,-4.89244 -0.73122,-1.13967 -1.32805,-1.65342 -1.92489,-2.16716 -0.3782,-0.4349 -0.75641,-0.86981 -1.21257,-1.5935 z"
   id="path116" />
<path
   fill="#dac78c"
   opacity="1"
   stroke="none"
   d="m 240.78723,128.59061 c -6.57484,0.13801 -13.05536,-0.18944 -19.91244,-0.50586 5.94918,-6.74093 12.27496,-13.49289 18.60073,-20.24485 0.46869,0.23306 0.93737,0.46612 1.40604,0.69919 0,6.52867 0,13.05735 -0.0943,20.05152 z"
   id="path117" />
<path
   fill="#c3ae6b"
   opacity="1"
   stroke="none"
   d="m 192.71463,175.69961 c -0.59544,-0.41291 -1.17175,-1.13713 -1.7775,-2.17639 0.57927,0.41167 1.18795,1.13839 1.7775,2.17639 z"
   id="path118" />
<path
   fill="#dac78c"
   opacity="1"
   stroke="none"
   d="m 220.97626,208.99396 c -0.20569,0.53846 -0.41136,1.07693 -0.61705,1.61538 -0.4318,-0.28968 -0.86361,-0.57939 -1.35533,-1.16397 0.12442,-0.32946 0.30879,-0.36409 1.00305,-0.43219 0.50988,-0.0335 0.96933,-0.0192 0.96933,-0.0192 z"
   id="path119" />
<path
   fill="#d1bb76"
   opacity="1"
   stroke="none"
   d="m 149.15514,153.2764 c 0.56839,0.19928 1.16522,0.71303 1.77166,1.55607 -0.57466,-0.19433 -1.15895,-0.71797 -1.77166,-1.55607 z"
   id="path120" />
<path
   fill="#c3ae6b"
   opacity="1"
   stroke="none"
   d="m 220.99396,208.73462 c -0.0177,0.25934 -0.47715,0.2451 -0.70635,0.25845 -0.17367,-0.43068 -0.11815,-0.87469 0.0732,-1.62514 0.30751,0.16483 0.47917,0.63608 0.63312,1.36669 z"
   id="path121" />
<path
   fill="#9c884f"
   opacity="1"
   stroke="none"
   d="m 106.27638,250.98352 c -0.18194,-0.26544 -0.008,-0.54163 0.48693,-0.871 0.0701,0.18831 -0.0801,0.49278 -0.48693,0.871 z"
   id="path122" />
<path
   fill="#b8a364"
   opacity="1"
   stroke="none"
   d="m 133.12819,223.65457 c -0.0959,-0.19096 0.0659,-0.39769 0.47774,-0.63074 0.1063,0.19359 -0.0503,0.40737 -0.47774,0.63074 z"
   id="path123" />
<path
   fill="#e2cd87"
   opacity="1"
   stroke="none"
   d="m 119.81878,206.92364 c -0.11544,0.14757 -0.35719,0.19089 -0.52189,0.0268 0.077,-0.20735 0.39558,-0.13109 0.52189,-0.0268 z"
   id="path124" />
<path
   fill="#b8a364"
   opacity="1"
   stroke="none"
   d="m 150.13509,206.70149 c -0.0968,-0.16765 0.0444,-0.37288 0.39509,-0.64612 0.14684,0.18187 0.0247,0.40738 -0.39509,0.64612 z"
   id="path125"
   style="display:inline" />
<path
   fill="#baa666"
   opacity="1"
   stroke="none"
   d="m 182.58609,196.18008 c 0.0551,-0.1427 0.31453,0.21146 0.38052,0.29801 -0.17526,0.15852 -0.34246,0.0779 -0.38052,-0.29801 z"
   id="path126"
   style="display:inline" />
</svg>
