<?xml version="1.0" encoding="UTF-8" standalone="no"?>
<svg
   version="1.1"
   id="Layer_1"
   x="0px"
   y="0px"
   width="100%"
   viewBox="0 0 900 333"
   enable-background="new 0 0 900 333"
   xml:space="preserve"
   sodipodi:docname="file.svg"
   inkscape:version="1.3.2 (1:1.3.2+202311252150+091e20ef0f)"
   xmlns:inkscape="http://www.inkscape.org/namespaces/inkscape"
   xmlns:sodipodi="http://sodipodi.sourceforge.net/DTD/sodipodi-0.dtd"
   xmlns="http://www.w3.org/2000/svg"
   xmlns:svg="http://www.w3.org/2000/svg"><defs
   id="defs126" /><sodipodi:namedview
   id="namedview126"
   pagecolor="#ffffff"
   bordercolor="#111111"
   borderopacity="1"
   inkscape:showpageshadow="0"
   inkscape:pageopacity="0"
   inkscape:pagecheckerboard="1"
   inkscape:deskcolor="#d1d1d1"
   inkscape:zoom="2.1233333"
   inkscape:cx="455.65149"
   inkscape:cy="141.75824"
   inkscape:window-width="2560"
   inkscape:window-height="1375"
   inkscape:window-x="0"
   inkscape:window-y="0"
   inkscape:window-maximized="1"
   inkscape:current-layer="Layer_1" />

<path
   fill="#E3CE84"
   opacity="1.000000"
   stroke="none"
   d=" M694.684875,84.013626   C694.456848,98.780205 694.043213,113.547043 694.063171,128.313278   C694.077515,138.921509 694.671082,149.528931 695.044067,160.741028   C695.145569,161.516617 695.247681,161.660660 695.388184,161.777466   C695.542908,166.884460 695.697693,171.991440 695.325562,177.555511   C675.271423,178.008377 655.744080,177.952454 636.217407,178.050858   C632.957886,178.067276 629.701782,178.754471 626.444092,179.131683   C621.151062,171.043701 615.748474,163.024811 610.590637,154.851471   C602.939209,142.726624 595.469543,130.487167 587.903564,118.308243   C585.914917,115.107201 583.856567,111.949501 580.889709,108.897713   C580.889709,130.961533 580.889709,153.025345 580.368103,175.548279   C568.249023,176.340134 556.651489,176.672852 545.054016,177.005569   C544.700012,171.216522 544.062012,165.428543 544.040283,159.638245   C543.937195,132.166031 544.080322,104.692841 543.965149,77.220711   C543.924805,67.594994 543.389709,57.971527 543.098572,48.346489   C543.049500,46.724483 543.091675,45.099712 543.091675,42.022438   C554.813416,42.022438 566.054565,41.902645 577.287170,42.159164   C578.865601,42.195206 580.979248,43.714680 581.871216,45.151928   C595.109192,66.483612 608.138977,87.944344 621.309448,109.318184   C631.419434,125.725189 641.659058,142.052322 651.838135,158.416794   C654.042297,161.960388 656.234070,165.511703 658.169006,168.635635   C658.169006,140.528488 658.169006,112.200844 658.683350,83.439087   C671.026733,83.341194 682.855774,83.677414 694.684875,84.013626  z"
   id="path2" />
<path
   fill="#E3CE85"
   opacity="1.000000"
   stroke="none"
   d=" M436.985168,168.039383   C432.272644,160.717377 427.506958,153.428894 422.859528,146.065796   C415.169403,133.881927 407.555511,121.649940 398.969421,109.831841   C398.969421,132.582184 398.969421,155.332535 398.454529,178.543671   C388.985748,179.002762 380.031830,178.997696 371.077911,179.000504   C364.008820,179.002731 364.158966,179.011673 363.937164,186.181213   C363.825653,189.787033 363.053925,193.372452 362.580719,196.967087   C362.672333,184.540955 362.830841,172.114731 362.816681,159.688721   C362.812164,155.725143 362.138550,151.762589 362.129486,147.798737   C362.051514,113.663048 362.054718,79.527168 362.043610,45.391346   C362.043427,44.898178 362.169678,44.404964 362.358704,43.018368   C367.303558,43.018368 372.380188,43.007805 377.456757,43.021435   C382.224762,43.034233 387.081604,43.661156 391.739288,42.957912   C398.269470,41.971954 400.425262,46.377632 403.015228,50.596004   C410.947571,63.515999 418.845398,76.457237 426.780365,89.375633   C440.500702,111.712761 454.237213,134.039932 467.971771,156.368317   C469.603424,159.020905 471.265259,161.654922 472.569092,164.645218   C470.421478,163.527954 468.346893,162.291718 466.874786,160.547089   C464.359406,157.566010 462.496368,151.832306 459.876099,151.536560   C450.329712,150.459106 440.583221,151.149765 430.912445,151.214218   C430.737793,151.215393 430.566498,151.716797 430.279816,152.161255   C431.982208,157.595963 438.373627,161.223160 436.985168,168.039383  z"
   id="path3" />
<path
   fill="#E4CF87"
   opacity="1.000000"
   stroke="none"
   d=" M769.017456,132.990845   C761.401306,121.033020 753.712280,109.120857 746.187439,97.105843   C736.653748,81.883141 727.253967,66.576508 717.795044,51.306938   C715.908997,48.262253 714.016968,45.221294 711.644897,41.401093   C714.027527,41.245174 715.736938,41.039272 717.446533,41.036621   C728.934509,41.018803 740.424133,40.951881 751.908630,41.158165   C753.571045,41.188023 755.931458,42.139622 756.748352,43.434612   C767.375366,60.280495 777.760315,77.278885 788.265808,94.201828   C789.907227,96.845840 791.844421,99.306198 794.264587,102.727707   C799.047791,94.037956 803.573853,85.948128 807.973755,77.790230   C814.309937,66.042297 820.466553,54.195889 826.961304,42.537220   C827.686707,41.235050 830.115356,40.187820 831.745972,40.199226   C840.679260,40.261726 849.608337,40.799973 858.542542,40.941952   C862.135681,40.999050 865.738220,40.463604 870.113220,40.140476   C866.946655,45.915707 864.134460,51.210175 861.171570,56.418926   C850.558228,75.077118 839.912109,93.716759 829.239197,112.340996   C825.137634,119.498291 820.931335,126.595543 816.183594,133.676605   C815.208496,132.239410 814.822632,130.845779 814.311523,129.000000   C801.855530,129.000000 789.447388,129.164154 777.048340,128.899826   C773.335449,128.820709 770.717834,129.697250 769.017456,132.990845  z"
   id="path4" />
<path
   fill="#8B7741"
   opacity="1.000000"
   stroke="none"
   d=" M283.916260,252.731018   C277.359283,262.606293 269.865814,271.762512 260.790497,279.349518   C253.317261,285.597137 245.460953,291.545898 237.135147,296.567108   C229.606110,301.107819 221.453156,304.917389 213.136475,307.769745   C203.322525,311.135651 193.156158,314.500458 182.927643,315.387634   C168.006790,316.681885 152.781372,316.920624 137.895630,315.464325   C123.368706,314.043182 109.453163,308.842133 96.191536,302.427216   C81.115471,295.134613 67.380112,285.836639 55.609730,273.933533   C50.023819,268.284637 45.329048,261.754547 40.539642,255.127991   C48.741741,254.093445 56.634766,253.554550 64.746300,253.288254   C65.970177,254.508865 66.975540,255.456879 68.004890,256.622864   C68.492271,257.222748 68.955673,257.604736 69.690971,257.690063   C72.961990,254.548416 75.961105,251.703369 79.046906,249.267273   C80.927711,250.117447 82.699219,250.752975 84.520042,250.964935   C90.997726,251.719025 97.492195,252.328857 103.857254,253.305420   C97.857719,259.798370 91.981255,265.979248 86.198212,272.061829   C86.176590,272.052277 87.128632,272.260315 87.809769,272.806274   C96.258560,279.578339 105.743492,284.355652 115.856537,288.155426   C137.759872,296.385162 160.068863,298.117371 183.161255,294.372589   C201.352051,291.422699 217.832230,284.584290 232.912216,274.484100   C240.890762,269.140289 247.841217,262.261444 255.544037,256.012115   C256.233429,255.338760 256.634613,254.728943 257.125397,253.802536   C258.439270,252.310715 259.663513,251.135498 261.363251,249.974701   C268.045319,249.992935 274.257996,249.855530 280.453156,250.123856   C281.642944,250.175400 282.763672,251.820877 283.916260,252.731018  z"
   id="path5" />
<path
   fill="#E5D189"
   opacity="1.000000"
   stroke="none"
   d=" M52.224682,65.014229   C57.446720,60.053967 62.390823,54.754200 67.948738,50.204220   C79.472038,40.770687 92.389832,33.522671 106.203720,28.025097   C129.392380,18.796608 153.444382,16.410349 178.234955,18.806503   C195.592697,20.484230 211.887405,25.548655 227.413345,32.951374   C240.851196,39.358501 253.286316,47.554569 263.431091,58.692207   C255.362823,58.996601 247.610062,59.023476 239.857605,58.984356   C237.717804,58.973560 235.752563,58.990910 235.651459,61.939857   C221.514740,53.429428 207.335968,45.936169 191.378494,42.208401   C175.682144,38.541634 159.917709,37.887981 143.986954,39.911232   C127.234985,42.038776 111.562767,47.292835 97.136703,56.140621   C92.421211,59.032722 87.702156,61.919018 82.977638,64.413528   C82.069473,63.030544 81.049438,61.101433 80.285629,61.198040   C72.060150,62.238457 63.067902,57.746708 55.578476,64.512077   C54.879612,65.143372 53.362091,64.868401 52.224682,65.014229  z"
   id="path6" />
<path
   fill="#E3CF86"
   opacity="1.000000"
   stroke="none"
   d=" M477.188690,150.010910   C477.145782,149.680649 477.069977,149.350891 477.064697,149.020035   C476.706726,126.567955 476.298737,104.116463 476.025482,81.663330   C475.890778,70.597115 475.996307,59.527843 476.018890,48.460007   C476.022186,46.839668 476.168945,45.219627 476.285980,42.860527   C488.441498,42.860527 500.310455,42.860527 512.542114,42.860527   C512.996704,81.008675 513.455811,119.538040 513.501465,158.431732   C512.724365,157.121078 512.013916,155.434052 512.071594,153.773682   C512.182068,150.592392 510.708801,148.998993 507.756744,149.063446   C497.565369,149.286011 487.377747,149.681351 477.188690,150.010910  z"
   id="path7" />
<path
   fill="#E1CB81"
   opacity="1.000000"
   stroke="none"
   d=" M769.050903,133.367645   C770.717834,129.697250 773.335449,128.820709 777.048340,128.899826   C789.447388,129.164154 801.855530,129.000000 814.311523,129.000000   C814.822632,130.845779 815.208496,132.239410 815.921143,133.887268   C813.914978,137.814499 817.747131,139.691635 818.912720,142.911087   C819.318298,143.655838 819.528992,143.842987 819.798218,143.964233   C827.394531,156.097931 834.990906,168.231628 842.232422,180.685745   C831.269653,180.670807 820.662415,180.150162 810.053223,180.108139   C806.681763,180.094788 803.305237,181.355637 799.931030,182.033417   C796.804138,177.495285 793.677307,172.957138 790.131836,167.811432   C787.152771,174.082413 784.405640,179.865067 781.016357,185.665527   C778.379150,185.122437 776.378418,184.061157 774.390137,184.083862   C763.499207,184.208191 752.611389,184.598434 741.722473,184.897339   C746.850342,175.393402 751.949036,165.873550 757.117981,156.392014   C759.854370,151.372635 762.712891,146.419830 766.163574,141.217041   C770.145813,140.485641 770.829102,138.799469 769.020630,136.009369   C769.041931,135.254395 769.063171,134.499405 769.050903,133.367645  z"
   id="path8" />
<path
   fill="#E2CD84"
   opacity="1.000000"
   stroke="none"
   d=" M236.007385,61.973831   C235.752563,58.990910 237.717804,58.973560 239.857605,58.984356   C247.610062,59.023476 255.362823,58.996601 263.590027,58.987278   C267.270630,62.128147 270.476685,65.276367 273.942688,68.931313   C274.390839,69.705444 274.637970,69.896538 274.944092,70.011314   C288.137604,85.455879 297.939941,102.788002 303.550049,122.600052   C296.266357,123.025993 289.428314,123.057396 282.342865,122.874588   C281.559967,121.634476 280.898163,120.654236 280.508118,119.575706   C275.673981,106.208374 268.007355,94.551857 258.864563,83.580841   C258.630890,83.253517 258.448792,83.121941 258.070862,82.789795   C257.600220,82.037979 257.289581,81.536255 256.953461,80.723114   C256.350250,79.923416 255.772537,79.435143 254.871918,78.858124   C254.332092,78.716606 254.115173,78.663857 253.774796,78.518051   C253.306412,78.400192 253.086502,78.570061 252.996277,78.966476   C253.000992,78.998322 252.936752,78.993668 252.729767,79.104797   C252.265656,79.414467 252.089951,79.669182 251.999039,79.990662   C252.002396,80.001228 251.980896,79.996452 251.766022,80.106400   C251.282700,80.416206 251.102066,80.676941 250.858490,81.302231   C244.000183,88.351692 237.369186,95.175819 230.564056,101.821632   C223.498840,108.721436 216.265121,115.448685 209.003326,121.832458   C207.458633,120.942169 206.021896,120.087357 204.571732,120.063934   C197.150665,119.944092 189.726166,120.038567 182.367035,119.738518   C190.039413,111.994461 197.645065,104.567390 205.256561,97.146309   C211.810928,90.755928 218.371964,84.372398 225.180496,77.854080   C225.640686,77.215210 225.850464,76.708107 226.230164,75.908966   C229.924408,72.413277 233.448730,69.209618 237.259476,65.873352   C237.385315,64.820641 237.224716,63.900555 236.830109,62.882278   C236.399857,62.514000 236.203629,62.243912 236.007385,61.973831  z"
   id="path9" />
<path
   fill="#E0CA80"
   opacity="1.000000"
   stroke="none"
   d=" M477.129333,150.475418   C487.377747,149.681351 497.565369,149.286011 507.756744,149.063446   C510.708801,148.998993 512.182068,150.592392 512.071594,153.773682   C512.013916,155.434052 512.724365,157.121078 513.458496,158.898254   C513.589783,165.935196 513.239502,172.868683 513.158264,179.805298   C513.117737,183.262375 513.569824,186.725204 513.358521,190.529266   C510.057281,190.248734 507.203278,189.123611 504.334625,189.084915   C490.398407,188.896942 476.455475,188.849319 462.521240,189.101044   C458.823151,189.167862 455.147430,190.471298 451.461426,191.206955   C448.396912,186.630203 445.278076,182.088562 442.287872,177.463776   C440.449585,174.620651 438.807983,171.650360 437.031616,168.388275   C438.373627,161.223160 431.982208,157.595963 430.279816,152.161255   C430.566498,151.716797 430.737793,151.215393 430.912445,151.214218   C440.583221,151.149765 450.329712,150.459106 459.876099,151.536560   C462.496368,151.832306 464.359406,157.566010 466.874786,160.547089   C468.346893,162.291718 470.421478,163.527954 472.596344,165.000549   C474.077301,166.401474 475.186981,167.794754 477.070007,170.159012   C477.070007,163.117783 477.070007,157.028854 477.129333,150.475418  z"
   id="path10" />
<path
   fill="#E4D087"
   opacity="1.000000"
   stroke="none"
   d=" M694.784485,83.551964   C682.855774,83.677414 671.026733,83.341194 658.761780,83.009827   C658.325928,69.377403 658.325928,55.740139 658.325928,41.552795   C670.344055,41.552795 682.358276,41.552795 694.884094,41.552795   C694.884094,55.387489 694.884094,69.238892 694.784485,83.551964  z"
   id="path11" />
<path
   fill="#E2CD84"
   opacity="1.000000"
   stroke="none"
   d=" M52.041473,65.266495   C53.362091,64.868401 54.879612,65.143372 55.578476,64.512077   C63.067902,57.746708 72.060150,62.238457 80.285629,61.198040   C81.049438,61.101433 82.069473,63.030544 82.730446,64.619164   C81.911629,65.827225 81.332909,66.435196 80.595474,67.140106   C80.241554,67.401299 80.104759,67.604836 79.711151,67.982239   C76.496971,70.762222 73.598007,73.407623 70.561821,76.135086   C70.254532,76.354073 70.128075,76.523544 69.769867,76.914093   C68.633972,78.063011 67.773415,79.023399 66.730331,80.077194   C66.315758,80.329292 66.145142,80.538162 65.692062,80.882622   C60.525738,87.727867 55.348495,94.267830 50.983814,101.311325   C46.881111,107.932053 43.636269,115.084381 39.544567,122.002144   C32.343788,121.996613 25.612429,121.991753 18.881069,121.986893   C21.877445,114.404419 24.212582,106.467285 28.040300,99.330704   C32.655449,90.726013 38.537552,82.800858 44.197540,74.183701   C44.729671,73.628677 44.878529,73.429024 44.970425,73.186882   C45.284798,72.960365 45.599171,72.733849 46.426353,72.245804   C47.618736,70.971336 48.298309,69.958389 48.977882,68.945442   C49.023136,68.772453 49.068386,68.599464 49.374855,68.055710   C49.828342,67.475739 49.945068,67.230522 49.986259,66.949287   C50.610260,66.472443 51.234261,65.995598 52.041473,65.266495  z"
   id="path12" />
<path
   fill="#DCC67D"
   opacity="1.000000"
   stroke="none"
   d=" M626.581299,179.480667   C629.701782,178.754471 632.957886,178.067276 636.217407,178.050858   C655.744080,177.952454 675.271423,178.008377 695.238647,178.017105   C695.775269,185.041748 695.871887,192.061844 695.491699,199.541321   C692.909119,199.667938 690.798157,199.018906 688.698486,199.053253   C674.013367,199.293442 659.329773,199.644241 644.648499,200.059937   C643.222595,200.100311 641.815979,200.821426 640.400452,201.226547   C635.839783,194.094238 631.279175,186.961929 626.581299,179.480667  z"
   id="path13" />
<path
   fill="#D1BB76"
   opacity="1.000000"
   stroke="none"
   d=" M398.784058,203.023315   C399.114960,212.138428 399.373810,221.257004 399.813385,230.366867   C399.980988,233.839935 398.646851,235.039307 395.177612,234.984680   C384.758118,234.820572 374.334351,234.925552 363.052521,234.925552   C363.052521,224.394775 363.052521,214.170792 363.561279,203.476242   C375.641388,203.011566 387.212708,203.017441 398.784058,203.023315  z"
   id="path14" />
<path
   fill="#D1BB76"
   opacity="1.000000"
   stroke="none"
   d=" M513.841492,208.011673   C513.841492,216.454483 513.841492,224.897278 513.841492,233.856628   C505.273895,233.856628 497.108734,233.203522 489.097870,234.035751   C480.670166,234.911255 474.975037,232.686859 471.381775,224.702606   C469.169556,219.787048 465.914917,215.340607 463.421112,210.157867   C465.708588,209.088150 467.699219,208.090225 469.698578,208.072525   C484.411896,207.942245 499.126984,208.007782 513.841492,208.011673  z"
   id="path15" />
<path
   fill="#D1BB76"
   opacity="1.000000"
   stroke="none"
   d=" M768.022095,209.836151   C764.669678,216.378815 761.410583,222.972626 757.879272,229.417221   C757.240417,230.582947 755.511047,231.816528 754.239563,231.866776   C741.958801,232.352188 729.668457,232.596771 717.380249,232.884583   C716.751526,232.899307 716.117249,232.680435 714.382324,232.378021   C719.562988,223.087616 724.500732,214.232834 730.076660,205.346619   C741.450500,205.210251 752.186401,205.028931 762.921570,205.062332   C765.171265,205.069336 767.418396,205.867233 769.666748,206.300690   C769.468384,206.981689 769.270081,207.662689 768.786743,208.774353   C768.280579,209.368805 768.120667,209.579193 768.022095,209.836151  z"
   id="path16" />
<path
   fill="#D9C37B"
   opacity="1.000000"
   stroke="none"
   d=" M513.904541,207.546661   C499.126984,208.007782 484.411896,207.942245 469.698578,208.072525   C467.699219,208.090225 465.708588,209.088150 463.372864,209.809845   C459.272583,203.953903 455.513367,197.920334 451.607788,191.546844   C455.147430,190.471298 458.823151,189.167862 462.521240,189.101044   C476.455475,188.849319 490.398407,188.896942 504.334625,189.084915   C507.203278,189.123611 510.057281,190.248734 513.269165,190.936996   C513.736084,196.361160 513.851807,201.721405 513.904541,207.546661  z"
   id="path17" />
<path
   fill="#D4BE77"
   opacity="1.000000"
   stroke="none"
   d=" M640.466553,201.596619   C641.815979,200.821426 643.222595,200.100311 644.648499,200.059937   C659.329773,199.644241 674.013367,199.293442 688.698486,199.053253   C690.798157,199.018906 692.909119,199.667938 695.431030,200.007202   C695.833679,205.721497 695.820129,211.429306 695.295410,217.570633   C682.175964,217.669479 669.567566,217.342148 656.959656,216.993866   C654.480103,216.925385 652.166748,217.028702 651.882263,220.296112   C648.099060,214.186295 644.315857,208.076492 640.466553,201.596619  z"
   id="path18" />
<path
   fill="#D0BA75"
   opacity="1.000000"
   stroke="none"
   d=" M861.342407,211.861053   C865.573608,218.087280 869.804749,224.313492 875.036133,232.011444   C868.071228,232.011444 862.552734,232.025726 857.034302,232.007980   C849.576416,231.983994 842.110535,232.116043 834.666260,231.778625   C832.639648,231.686768 829.891357,230.696365 828.832764,229.173828   C825.453308,224.313339 822.712341,219.008911 820.057617,213.474640   C823.974243,212.715393 827.553589,212.110947 831.142761,212.046417   C841.207153,211.865402 851.275574,211.907166 861.342407,211.861053  z"
   id="path19" />
<path
   fill="#DCC67D"
   opacity="1.000000"
   stroke="none"
   d=" M398.857941,202.557617   C387.212708,203.017441 375.641388,203.011566 363.614441,203.011505   C362.878693,201.250717 362.598541,199.484146 362.449554,197.342316   C363.053925,193.372452 363.825653,189.787033 363.937164,186.181213   C364.158966,179.011673 364.008820,179.002731 371.077911,179.000504   C380.031830,178.997696 388.985748,179.002762 398.395630,179.009918   C398.878296,186.707581 398.905060,194.399750 398.857941,202.557617  z"
   id="path20" />
<path
   fill="#D9C37B"
   opacity="1.000000"
   stroke="none"
   d=" M769.909302,206.110260   C767.418396,205.867233 765.171265,205.069336 762.921570,205.062332   C752.186401,205.028931 741.450500,205.210251 730.365112,205.162079   C733.746704,198.441742 737.478027,191.874557 741.465942,185.102356   C752.611389,184.598434 763.499207,184.208191 774.390137,184.083862   C776.378418,184.061157 778.379150,185.122437 780.726807,185.860443   C777.436951,192.664993 773.794434,199.292419 769.909302,206.110260  z"
   id="path21" />
<path
   fill="#D0BA75"
   opacity="1.000000"
   stroke="none"
   d=" M580.746887,212.018616   C580.746887,218.783264 580.746887,225.547928 580.746887,233.161453   C568.979675,233.161453 557.343994,233.161453 545.001953,233.161453   C545.001953,230.722137 545.001953,227.801697 545.178223,224.043732   C545.570557,221.095718 546.138733,218.949295 545.927673,216.882431   C545.514038,212.831421 547.187622,211.828506 551.010742,211.921432   C560.917725,212.162201 570.834229,212.012451 580.746887,212.018616  z"
   id="path22" />
<path
   fill="#D7C17A"
   opacity="1.000000"
   stroke="none"
   d=" M861.248718,211.508575   C851.275574,211.907166 841.207153,211.865402 831.142761,212.046417   C827.553589,212.110947 823.974243,212.715393 819.915466,213.137115   C816.306274,208.395981 813.172058,203.591156 810.063171,198.032806   C811.883789,196.519562 813.668579,195.131821 815.475891,195.101913   C827.261047,194.906891 839.051025,195.006317 850.839478,195.009430   C854.278015,200.391647 857.716553,205.773865 861.248718,211.508575  z"
   id="path23" />
<path
   fill="#8F7B48"
   opacity="1.000000"
   stroke="none"
   d=" M829.305237,274.976410   C834.242493,274.974915 838.711121,274.974915 843.100525,274.974915   C845.467529,285.256927 841.476257,292.501770 831.410278,294.337189   C821.529114,296.138855 814.524475,292.610626 811.359619,282.895142   C808.369385,273.715973 813.206909,262.859985 820.944641,260.831116   C830.949707,258.207703 841.265076,260.192413 843.756653,271.803162   C839.748474,271.947937 836.078186,273.028107 832.722412,268.968018   C830.010193,265.686646 825.888550,266.205719 822.444031,268.873749   C818.883606,271.631561 817.850769,277.004578 819.544922,281.460083   C821.286133,286.039368 825.137939,287.714844 829.169617,287.326355   C831.818237,287.071106 834.227783,284.335388 836.744385,282.710510   C836.517212,282.214569 836.290039,281.718597 836.062866,281.222656   C833.007263,281.222656 829.951660,281.222656 826.517273,281.222656   C826.618774,278.515656 824.141052,275.541504 829.305237,274.976410  z"
   id="path24" />
<path
   fill="#8D7945"
   opacity="1.000000"
   stroke="none"
   d=" M781.488220,275.551239   C781.129028,281.656403 781.129028,287.606140 781.129028,293.783264   C778.304138,293.783264 776.042969,293.783264 773.454590,293.783264   C773.454590,282.653809 773.454590,271.605621 773.454590,260.609802   C778.416931,258.914795 781.689209,260.411377 784.153931,264.915741   C786.891602,269.919006 790.171082,274.625885 793.837280,280.451111   C793.837280,273.154175 793.837280,266.961243 793.837280,260.413177   C796.607361,260.413177 798.976074,260.413177 801.625732,260.413177   C801.625732,271.422516 801.625732,282.339264 801.621094,293.257080   C795.111938,294.919586 793.970886,294.332703 790.204285,288.196472   C787.539612,283.855347 784.641357,279.657562 781.488220,275.551239  z"
   id="path25" />
<path
   fill="#D7C17A"
   opacity="1.000000"
   stroke="none"
   d=" M580.825867,211.554382   C570.834229,212.012451 560.917725,212.162201 551.010742,211.921432   C547.187622,211.828506 545.514038,212.831421 545.927673,216.882431   C546.138733,218.949295 545.570557,221.095718 545.189392,223.582489   C544.704712,217.426529 544.339233,210.896042 544.085449,204.361237   C543.963562,201.225037 544.052673,198.080643 544.510010,194.459534   C547.742493,193.652740 550.508057,193.080170 553.280396,193.045166   C562.466736,192.929184 571.655518,193.006912 580.843323,193.010330   C580.863831,199.036942 580.884338,205.063553 580.825867,211.554382  z"
   id="path26" />
<path
   fill="#8F7C49"
   opacity="1.000000"
   stroke="none"
   d=" M550.192139,294.726959   C542.643555,293.942810 537.473450,290.643707 535.121887,283.585968   C532.773376,276.537506 533.485474,269.255005 538.618958,264.438141   C547.039673,256.536835 562.390747,256.590149 567.539001,270.896149   C571.725708,282.530273 564.141113,294.964630 550.192139,294.726959  M557.581543,284.119385   C561.347412,280.019836 561.429077,273.244263 557.757996,269.475220   C554.580933,266.213287 548.772400,265.734467 545.704285,268.517242   C540.341309,273.381409 541.101868,280.142212 544.097290,284.175293   C547.000000,288.083557 552.372742,288.240326 557.581543,284.119385  z"
   id="path27" />
<path
   fill="#DCC67D"
   opacity="1.000000"
   stroke="none"
   d=" M850.765991,194.672577   C839.051025,195.006317 827.261047,194.906891 815.475891,195.101913   C813.668579,195.131821 811.883789,196.519562 810.027771,197.678406   C806.671509,192.961304 803.376038,187.845108 800.005859,182.381165   C803.305237,181.355637 806.681763,180.094788 810.053223,180.108139   C820.662415,180.150162 831.269653,180.670807 842.285645,181.010193   C845.359924,185.454742 848.026245,189.895233 850.765991,194.672577  z"
   id="path28" />
<path
   fill="#8D7945"
   opacity="1.000000"
   stroke="none"
   d=" M423.524841,285.475708   C425.352142,288.371979 426.951324,290.986816 428.612335,293.702698   C422.686005,294.805237 418.080872,294.221954 416.127167,287.658783   C415.484436,285.499573 413.636566,283.699127 411.181091,282.114838   C411.181091,285.804932 411.181091,289.495026 411.181091,293.601562   C408.270355,293.601562 405.901825,293.601562 403.249878,293.601562   C403.249878,282.709991 403.249878,271.771301 403.249878,260.275604   C409.073334,260.275604 415.042175,259.781738 420.883057,260.433777   C425.455658,260.944244 428.295166,264.992126 428.493134,269.147369   C428.641449,272.260864 426.391327,275.576172 424.870850,278.633423   C424.348236,279.684357 422.802063,280.226257 421.244781,281.344391   C421.867523,282.512756 422.582123,283.853485 423.524841,285.475708  M410.884888,268.558502   C410.884888,270.908630 410.884888,273.258759 410.884888,275.761383   C412.834229,275.632629 415.184723,276.016357 416.988800,275.196930   C418.588928,274.470184 420.621887,272.355865 420.552795,270.947815   C420.482605,269.517792 418.286469,267.579193 416.629333,267.015137   C415.023468,266.468506 412.919128,267.386475 410.884888,268.558502  z"
   id="path29" />
<path
   fill="#D0BA75"
   opacity="1.000000"
   stroke="none"
   d=" M651.976929,220.618591   C652.166748,217.028702 654.480103,216.925385 656.959656,216.993866   C669.567566,217.342148 682.175964,217.669479 695.202148,218.004120   C695.619995,222.773087 695.619995,227.542099 695.619995,232.976273   C684.040039,232.976273 672.416748,233.032089 660.796326,232.873978   C659.830261,232.860840 658.629028,231.571136 657.975525,230.584198   C655.895996,227.443665 654.023865,224.165848 651.976929,220.618591  z"
   id="path30" />
<path
   fill="#8C7843"
   opacity="1.000000"
   stroke="none"
   d=" M718.138489,261.387817   C720.561584,260.535980 722.914612,260.139374 725.671509,259.674652   C725.671509,271.374725 725.671509,282.429535 725.671509,293.750244   C723.343445,293.750244 721.073364,293.750244 718.303711,293.750244   C718.303711,289.433838 718.303711,285.025024 718.303711,280.217987   C713.761475,280.217987 709.702393,280.217987 705.070312,280.217987   C705.070312,284.415558 705.070312,288.810059 705.070312,293.607635   C702.173645,293.607635 699.824402,293.607635 697.219482,293.607635   C697.219482,282.629730 697.219482,271.696899 697.219482,260.408997   C699.502991,260.408997 701.743774,260.408997 704.592529,260.408997   C704.592529,264.330933 704.592529,268.380798 704.592529,272.703247   C709.270203,272.703247 713.350525,272.703247 718.068359,272.703247   C718.068359,269.056152 718.068359,265.449585 718.138489,261.387817  z"
   id="path31" />
<path
   fill="#8F7C49"
   opacity="1.000000"
   stroke="none"
   d=" M672.113220,266.885315   C667.496704,267.945648 664.383850,270.378479 664.004700,274.830292   C663.650452,278.988586 663.476685,283.407715 668.156067,285.894348   C672.058350,287.968079 675.415222,287.314392 678.516968,284.302795   C682.325195,280.605255 682.351379,280.632233 688.235779,281.384277   C687.864441,289.460663 681.264648,294.679382 671.421509,294.680084   C663.021851,294.680634 656.354675,288.089539 656.007080,279.441498   C655.566528,268.477203 660.285156,260.809937 668.055115,260.113312   C678.654968,259.162933 686.051147,260.703766 688.131775,272.357574   C684.119202,273.025085 680.522949,273.179199 677.671875,269.239929   C676.705811,267.905273 674.272949,267.632172 672.113220,266.885315  z"
   id="path32" />
<path
   fill="#8F7C49"
   opacity="1.000000"
   stroke="none"
   d=" M369.917480,281.009155   C374.034882,288.731415 380.024139,289.335114 385.443573,283.515381   C387.179565,281.651184 390.440186,281.206726 393.443878,279.924652   C393.808014,288.209412 388.217041,294.543732 380.684082,294.697357   C368.770172,294.940247 362.792450,291.027527 361.296539,279.513702   C359.905273,268.805389 365.500519,261.816132 372.907562,260.382538   C382.063873,258.610352 392.232849,260.379364 393.785004,272.224762   C390.454254,272.660431 387.452850,273.619141 384.620697,270.157196   C382.249512,267.258728 378.646881,265.600891 374.808929,267.619690   C369.981598,270.158875 368.675568,274.020935 369.917480,281.009155  z"
   id="path33" />
<path
   fill="#DDC77E"
   opacity="1.000000"
   stroke="none"
   d=" M580.904419,192.545166   C571.655518,193.006912 562.466736,192.929184 553.280396,193.045166   C550.508057,193.080170 547.742493,193.652740 544.564331,193.994400   C544.420288,188.635651 544.685730,183.261581 545.002563,177.446533   C556.651489,176.672852 568.249023,176.340134 580.291992,176.012009   C580.813538,181.371078 580.889526,186.725540 580.904419,192.545166  z"
   id="path34" />
<path
   fill="#8F7B48"
   opacity="1.000000"
   stroke="none"
   d=" M626.946045,279.944641   C629.348206,277.403259 628.676514,275.415131 626.960449,273.137146   C624.059265,269.285919 621.430969,265.229095 618.593750,261.122406   C628.429871,256.653717 630.373718,265.050476 634.648438,269.908051   C637.920471,264.656342 639.589111,257.009033 649.059387,260.761963   C646.689697,264.739624 644.731201,269.122589 641.778564,272.680573   C638.711060,276.376984 640.027527,279.205353 642.097961,282.299896   C644.513794,285.910736 647.032104,289.452972 649.564392,293.109375   C641.644043,295.350800 641.381470,295.206329 633.980408,284.490265   C630.109192,289.016144 628.493103,297.436798 619.277893,293.284485   C621.737610,289.046295 624.279663,284.666199 626.946045,279.944641  z"
   id="path35" />
<path
   fill="#8F7B48"
   opacity="1.000000"
   stroke="none"
   d=" M756.699280,268.268768   C759.790649,276.943481 762.812805,285.225494 765.881470,293.634644   C760.981567,294.386108 757.100952,295.001251 755.685425,289.152618   C755.083130,286.663879 743.190735,286.695190 742.753784,289.117126   C741.613220,295.439423 737.489929,294.156281 732.788391,293.676147   C733.812500,290.669189 734.678528,287.955231 735.658752,285.283112   C737.855225,279.295349 740.119629,273.332489 742.335876,267.351929   C745.158691,259.734436 745.149963,259.731201 753.566040,260.171417   C754.573792,262.705383 755.601990,265.290741 756.699280,268.268768  M747.387573,274.810883   C746.687622,276.949066 745.987671,279.087219 745.197510,281.500824   C748.205505,281.500824 750.667542,281.500824 753.558777,281.500824   C752.188538,277.567719 750.899536,273.867706 749.464539,269.748627   C748.775391,271.426910 748.225586,272.766022 747.387573,274.810883  z"
   id="path36" />
<path
   fill="#8D7945"
   opacity="1.000000"
   stroke="none"
   d=" M495.744873,266.479431   C499.182343,276.443420 494.081451,281.302124 479.207886,282.256989   C479.207886,285.931793 479.207886,289.659210 479.207886,293.699280   C476.493225,293.699280 474.259705,293.699280 471.715363,293.699280   C471.715363,282.660217 471.715363,271.632019 471.715363,259.822052   C480.043732,261.512451 489.634155,256.098969 495.744873,266.479431  M478.820007,268.630554   C478.820007,271.005066 478.820007,273.379578 478.820007,275.867157   C480.949982,275.867157 482.281189,276.023254 483.562134,275.835876   C486.575836,275.395111 489.221069,274.050446 488.753662,270.570923   C488.315826,267.311493 485.994781,265.903259 482.610199,266.815125   C481.403931,267.140106 480.183105,267.411072 478.820007,268.630554  z"
   id="path37" />
<path
   fill="#8B7741"
   opacity="1.000000"
   stroke="none"
   d=" M866.028259,273.990417   C868.131653,273.990417 869.770935,273.990417 871.706543,273.990417   C871.706543,276.039612 871.706543,277.763214 871.706543,279.995697   C867.904358,279.995697 864.163086,279.995697 860.222534,279.995697   C860.222534,282.772552 860.222534,285.047699 860.222534,287.833862   C864.626221,287.833862 869.033264,287.833862 873.718262,287.833862   C873.718262,290.061615 873.718262,291.784698 873.718262,293.760315   C866.842346,293.760315 860.071472,293.760315 852.879028,293.760315   C852.879028,282.703979 852.879028,271.679871 852.879028,260.355408   C859.716553,260.355408 866.472900,260.355408 873.763672,260.355408   C873.844299,261.986938 873.929138,263.702576 874.044128,266.029602   C871.445190,266.029602 869.167175,266.028870 866.889099,266.029724   C859.649109,266.032471 859.649109,266.032715 860.364624,273.990417   C862.047180,273.990417 863.805725,273.990417 866.028259,273.990417  z"
   id="path38" />
<path
   fill="#8B7741"
   opacity="1.000000"
   stroke="none"
   d=" M591.990479,275.004089   C591.990479,269.874756 591.990479,265.244537 591.990479,260.341522   C599.134216,260.341522 605.859192,260.341522 612.795044,260.341522   C612.795044,262.185272 612.795044,263.794647 612.795044,265.964661   C608.529480,265.964661 604.282288,265.964661 599.798157,265.964661   C599.798157,268.797485 599.798157,271.073822 599.798157,273.937836   C603.573303,273.937836 607.316650,273.937836 611.317078,273.937836   C611.317078,276.106934 611.317078,277.693298 611.317078,279.889404   C607.511475,279.889404 603.773499,279.889404 599.799561,279.889404   C599.799561,282.768616 599.799561,285.043304 599.799561,287.870361   C604.062866,287.870361 608.303711,287.870361 612.765015,287.870361   C612.765015,290.025330 612.765015,291.635071 612.765015,293.628296   C606.142761,293.628296 599.416077,293.628296 591.990479,293.628296   C591.990479,287.690460 591.990479,281.596832 591.990479,275.004089  z"
   id="path39" />
<path
   fill="#8F7B48"
   opacity="1.000000"
   stroke="none"
   d=" M441.314240,274.891907   C438.661926,270.001831 436.190857,265.444916 433.617218,260.698792   C442.937744,259.094482 443.642548,259.658722 448.959717,272.856262   C450.523499,270.041718 452.319366,267.852203 453.012421,265.356415   C454.733490,259.158569 458.997314,259.581024 463.981049,260.432007   C460.863953,271.808167 450.041107,280.312500 453.312042,293.689453   C450.276794,293.689453 447.899048,293.689453 446.423615,293.689453   C444.726990,287.332642 443.111237,281.278839 441.314240,274.891907  z"
   id="path40" />
<path
   fill="#D9C37B"
   opacity="1.000000"
   stroke="none"
   d=" M282.590240,123.088799   C289.428314,123.057396 296.266357,123.025993 303.577454,122.989037   C305.652130,129.067184 307.253723,135.150894 308.324768,141.623932   C301.221893,142.005295 294.649628,141.997330 287.795715,141.745270   C285.872803,135.363708 284.231537,129.226257 282.590240,123.088799  z"
   id="path41" />
<path
   fill="#947F47"
   opacity="1.000000"
   stroke="none"
   d=" M284.221130,252.602097   C282.763672,251.820877 281.642944,250.175400 280.453156,250.123856   C274.257996,249.855530 268.045319,249.992935 261.418640,249.623962   C264.666931,244.172333 268.335236,239.085831 272.471863,234.003204   C278.379425,234.004944 283.824463,233.863281 289.254333,234.087524   C290.839264,234.152985 292.381134,235.261368 293.942719,235.891724   C290.803802,241.418869 287.664917,246.946014 284.221130,252.602097  z"
   id="path42" />
<path
   fill="#CCB672"
   opacity="1.000000"
   stroke="none"
   d=" M288.077362,141.989349   C294.649628,141.997330 301.221893,142.005295 308.235657,142.020355   C309.371948,148.069061 310.066711,154.110687 310.228058,160.585114   C303.252899,161.019302 296.811157,161.020691 290.243103,160.598541   C289.436920,154.113113 288.757141,148.051239 288.077362,141.989349  z"
   id="path43" />
<path
   fill="#8C7843"
   opacity="1.000000"
   stroke="none"
   d=" M521.871582,260.054871   C523.996643,260.054901 525.640564,260.054901 527.764771,260.054901   C527.852844,262.021301 527.929565,263.733551 528.022583,265.810303   C524.963745,265.956207 522.224426,266.086914 519.158203,266.233185   C519.158203,275.399841 519.158203,284.326416 519.158203,293.631195   C516.459961,293.631195 514.094116,293.631195 511.340912,293.631195   C511.340912,284.675385 511.340912,275.745605 511.340912,266.268982   C508.256592,266.268982 505.528564,266.268982 502.465149,266.268982   C502.465149,264.015717 502.465149,262.307220 502.465149,260.054871   C508.840057,260.054871 515.115295,260.054871 521.871582,260.054871  z"
   id="path44" />
<path
   fill="#AF9A5D"
   opacity="1.000000"
   stroke="none"
   d=" M18.771687,212.426331   C17.096500,205.932159 15.421312,199.437973 14.127697,192.341980   C16.342661,191.159958 18.155106,190.175476 20.013571,190.079178   C24.656506,189.838623 29.320333,190.001358 34.109566,190.368088   C35.463760,196.163086 36.684166,201.592255 37.442787,207.015900   C30.918774,207.060165 24.856544,207.109955 18.771687,207.159912   C18.771687,209.814651 18.771687,211.120499 18.771687,212.426331  z"
   id="path45" />
<path
   fill="#BAA666"
   opacity="1.000000"
   stroke="none"
   d=" M33.975777,190.002258   C29.320333,190.001358 24.656506,189.838623 20.013571,190.079178   C18.155106,190.175476 16.342661,191.159958 14.139196,191.908081   C13.188778,186.354538 12.608433,180.633026 12.516340,174.453903   C19.003429,173.667450 25.002268,173.338608 31.254364,173.016602   C31.844166,173.038239 32.180706,173.053024 32.641464,173.418304   C33.169044,179.179947 33.572411,184.591095 33.975777,190.002258  z"
   id="path46" />
<path
   fill="#C0AB67"
   opacity="1.000000"
   stroke="none"
   d=" M290.369446,161.022095   C296.811157,161.020691 303.252899,161.019302 310.127563,161.025848   C310.664673,166.049042 310.768829,171.064285 310.427460,176.540955   C303.377777,177.004166 296.773621,177.005905 290.100067,176.544159   C290.143616,171.061142 290.256531,166.041611 290.369446,161.022095  z"
   id="path47" />
<path
   fill="#9C884F"
   opacity="1.000000"
   stroke="none"
   d=" M294.238892,235.723114   C292.381134,235.261368 290.839264,234.152985 289.254333,234.087524   C283.824463,233.863281 278.379425,234.004944 272.510803,233.650818   C274.479523,228.871033 276.877594,224.447495 279.726868,220.019012   C287.066986,220.327271 293.955841,220.640472 300.844727,220.953644   C298.741486,225.820602 296.638275,230.687561 294.238892,235.723114  z"
   id="path48" />
<path
   fill="#B8A364"
   opacity="1.000000"
   stroke="none"
   d=" M290.169434,177.007660   C296.773621,177.005905 303.377777,177.004166 310.380249,177.006134   C310.171722,181.745575 309.564880,186.481262 308.388641,191.613068   C301.283417,192.011230 294.747620,192.013275 288.131470,191.597076   C288.757233,186.455109 289.463348,181.731384 290.169434,177.007660  z"
   id="path49" />
<path
   fill="#AF9A5D"
   opacity="1.000000"
   stroke="none"
   d=" M288.211823,192.015320   C294.747620,192.013275 301.283417,192.011230 308.266663,192.013336   C307.724884,196.863876 306.735687,201.710266 304.996979,206.791351   C297.603271,207.023575 290.959076,207.021088 284.293488,206.637299   C285.110291,203.510727 285.948517,200.765442 286.994141,197.938934   C287.209442,197.264633 287.217316,196.671555 287.200256,195.724670   C287.520782,194.252335 287.866302,193.133835 288.211823,192.015320  z"
   id="path50" />
<path
   fill="#947F47"
   opacity="1.000000"
   stroke="none"
   d=" M64.527794,253.015656   C56.634766,253.554550 48.741741,254.093445 40.472984,254.798264   C38.515003,252.854919 36.932755,250.745667 35.078468,248.133331   C34.636963,247.347794 34.401890,247.139252 34.101215,247.004654   C34.079021,246.822342 34.056831,246.640030 34.031639,245.766663   C33.729504,242.143555 35.585716,241.956421 37.798683,241.980103   C43.753330,242.043900 49.708992,242.012283 55.918976,242.258667   C58.958397,246.004410 61.743095,249.510025 64.527794,253.015656  z"
   id="path51" />
<path
   fill="#CCB672"
   opacity="1.000000"
   stroke="none"
   d=" M12.163207,160.013336   C12.467825,155.627930 12.772443,151.242508 13.547712,146.433472   C20.600719,146.010269 27.183075,146.010681 33.807175,146.434158   C33.174606,152.564209 32.500294,158.271194 31.575497,163.715912   C29.680695,162.302719 28.116726,160.329422 26.376577,160.159409   C21.678875,159.700409 16.906158,160.009201 12.163207,160.013336  z"
   id="path52" />
<path
   fill="#A59056"
   opacity="1.000000"
   stroke="none"
   d=" M284.314880,207.018600   C290.959076,207.021088 297.603271,207.023575 304.731934,207.046997   C305.098999,207.804443 304.981537,208.540985 304.475281,209.682404   C304.065155,210.727219 304.043854,211.367188 304.022552,212.007141   C303.156769,214.843735 302.290955,217.680344 301.134949,220.735291   C293.955841,220.640472 287.066986,220.327271 279.796326,219.670395   C281.048004,215.224014 282.681458,211.121307 284.314880,207.018600  z"
   id="path53" />
<path
   fill="#D4BE77"
   opacity="1.000000"
   stroke="none"
   d=" M33.765430,146.011108   C27.183075,146.010681 20.600719,146.010269 13.606970,146.012466   C13.832814,142.281769 14.470054,138.548447 15.625130,134.413422   C22.839190,134.024628 29.535410,134.037552 36.173878,134.402008   C36.059513,135.224014 36.002907,135.694458 35.950272,136.325531   C35.954243,136.486130 35.938976,136.807068 35.888947,137.200745   C35.147751,140.399979 34.456589,143.205536 33.765430,146.011108  z"
   id="path54" />
<path
   fill="#C3AE6B"
   opacity="1.000000"
   stroke="none"
   d=" M12.111794,160.263519   C16.906158,160.009201 21.678875,159.700409 26.376577,160.159409   C28.116726,160.329422 29.680695,162.302719 31.641300,164.154968   C31.923874,166.923157 31.890160,168.990021 31.633492,171.227661   C31.274063,171.935562 31.137585,172.472672 31.001106,173.009766   C25.002268,173.338608 19.003429,173.667450 12.542492,173.991760   C11.752761,171.606400 11.425131,169.225525 11.517704,166.339905   C11.979828,164.231598 12.021750,162.628036 12.063673,161.024490   C12.062575,160.854218 12.061479,160.683960 12.111794,160.263519  z"
   id="path55" />
<path
   fill="#A59056"
   opacity="1.000000"
   stroke="none"
   d=" M18.790012,212.800049   C18.771687,211.120499 18.771687,209.814651 18.771687,207.159912   C24.856544,207.109955 30.918774,207.060165 37.716614,207.283630   C39.653374,210.991135 40.854519,214.425385 41.803909,218.168549   C36.886810,218.984787 32.200851,219.356964 27.565928,220.063782   C25.622215,220.360199 23.786604,221.365509 21.901844,222.048523   C20.870676,219.090271 19.839508,216.132004 18.790012,212.800049  z"
   id="path56" />
<path
   fill="#9A864C"
   opacity="1.000000"
   stroke="none"
   d=" M55.664253,242.018555   C49.708992,242.012283 43.753330,242.043900 37.798683,241.980103   C35.585716,241.956421 33.729504,242.143555 34.031475,245.491211   C31.513355,241.584747 28.992399,237.262711 26.860741,232.411957   C34.390327,231.600983 41.530613,231.318695 48.775467,231.054688   C48.880032,231.072952 48.890053,231.284424 48.916752,231.573700   C49.418728,232.581802 49.894009,233.300629 50.642101,234.261688   C52.498028,237.008804 54.081139,239.513687 55.664253,242.018555  z"
   id="path57" />
<path
   fill="#A48E52"
   opacity="1.000000"
   stroke="none"
   d=" M48.670898,231.036423   C41.530613,231.318695 34.390327,231.600983 26.805607,232.035522   C24.934540,229.046097 23.507906,225.904434 21.991558,222.405640   C23.786604,221.365509 25.622215,220.360199 27.565928,220.063782   C32.200851,219.356964 36.886810,218.984787 42.073818,218.390030   C44.620617,222.547211 46.645756,226.791809 48.670898,231.036423  z"
   id="path58" />
<path
   fill="#DCC67D"
   opacity="1.000000"
   stroke="none"
   d=" M36.231632,134.050461   C29.535410,134.037552 22.839190,134.024628 15.730181,134.019379   C16.404995,130.230988 17.492598,126.434929 18.730635,122.312881   C25.612429,121.991753 32.343788,121.996613 39.527580,122.397476   C38.730553,126.545807 37.481094,130.298141 36.231632,134.050461  z"
   id="path59" />
<path
   fill="#E4CF87"
   opacity="1.000000"
   stroke="none"
   d=" M768.745911,136.192520   C770.829102,138.799469 770.145813,140.485641 766.439697,141.011078   C766.869324,139.475250 767.670227,137.925461 768.745911,136.192520  z"
   id="path60" />
<path
   fill="#CCB672"
   opacity="1.000000"
   stroke="none"
   d=" M11.800449,161.283890   C12.021750,162.628036 11.979828,164.231598 11.610655,165.922760   C11.368011,164.521362 11.452619,163.032318 11.800449,161.283890  z"
   id="path61" />
<path
   fill="#E5D189"
   opacity="1.000000"
   stroke="none"
   d=" M48.696564,69.069901   C48.298309,69.958389 47.618736,70.971336 46.586739,71.999802   C46.961292,71.074997 47.688271,70.134674 48.696564,69.069901  z"
   id="path62" />
<path
   fill="#AF9A5D"
   opacity="1.000000"
   stroke="none"
   d=" M304.279968,211.857819   C304.043854,211.367188 304.065155,210.727219 304.349426,210.033478   C304.587433,210.555954 304.562408,211.132233 304.279968,211.857819  z"
   id="path63" />
<path
   fill="#E5D189"
   opacity="1.000000"
   stroke="none"
   d=" M44.753143,73.205673   C44.878529,73.429024 44.729671,73.628677 44.359184,73.876404   C44.125263,73.635254 44.239044,73.387749 44.753143,73.205673  z"
   id="path64" />
<path
   fill="#E5D189"
   opacity="1.000000"
   stroke="none"
   d=" M49.812393,67.069916   C49.945068,67.230522 49.828342,67.475739 49.473984,67.806488   C49.280579,67.620201 49.389454,67.374367 49.812393,67.069916  z"
   id="path65" />
<path
   fill="#E5D189"
   opacity="1.000000"
   stroke="none"
   d=" M274.881958,69.769196   C274.637970,69.896538 274.390839,69.705444 274.100159,69.224091   C274.356110,69.048218 274.630188,69.220528 274.881958,69.769196  z"
   id="path66" />
<path
   fill="#9A864C"
   opacity="1.000000"
   stroke="none"
   d=" M34.062683,247.287415   C34.401890,247.139252 34.636963,247.347794 34.890388,247.853668   C34.657612,247.908112 34.340885,247.739136 34.062683,247.287415  z"
   id="path67" />
<path
   fill="#E4CF87"
   opacity="1.000000"
   stroke="none"
   d=" M819.795532,143.724274   C819.528992,143.842987 819.318298,143.655838 819.082642,143.205017   C819.352600,143.018433 819.617126,143.177460 819.795532,143.724274  z"
   id="path68" />
<path
   fill="#D9C37B"
   opacity="1.000000"
   stroke="none"
   d=" M768.254395,209.823181   C768.120667,209.579193 768.280579,209.368805 768.678589,209.112244   C768.927002,209.373810 768.804138,209.637390 768.254395,209.823181  z"
   id="path69" />
<path
   fill="#E5D189"
   opacity="1.000000"
   stroke="none"
   d=" M695.433105,161.629089   C695.247681,161.660660 695.145569,161.516617 695.041931,161.214691   C695.214050,161.152481 695.372681,161.284714 695.433105,161.629089  z"
   id="path70" />

<path
   fill="#947F47"
   opacity="1.000000"
   stroke="none"
   d=" M106.019714,251.057236   C105.525482,251.644165 105.031258,252.231094 104.258667,252.905670   C97.492195,252.328857 90.997726,251.719025 84.520042,250.964935   C82.699219,250.752975 80.927711,250.117447 79.046906,249.267273   C82.724815,244.975815 86.489388,241.093277 90.988480,237.105896   C98.167145,237.333984 104.609177,237.845703 111.056366,237.921799   C114.117615,237.957916 115.393120,238.942749 114.987106,241.966400   C112.508934,244.529144 110.030762,247.091904 107.047806,249.941681   C106.268883,250.441895 106.094444,250.718079 106.019714,251.057236  z"
   id="path72" />
<path
   fill="#947F47"
   opacity="1.000000"
   stroke="none"
   d=" M255.544052,256.012115   C255.646866,255.463745 256.037903,254.851837 256.732361,254.179520   C256.634613,254.728943 256.233429,255.338760 255.544052,256.012115  z"
   id="path73" />
<path
   fill="#947F47"
   opacity="1.000000"
   stroke="none"
   d=" M68.004883,256.622864   C68.394630,256.735138 68.808365,257.065369 69.320587,257.691162   C68.955673,257.604736 68.492271,257.222748 68.004883,256.622864  z"
   id="path74" />
<path
   fill="#DDC77E"
   opacity="1.000000"
   stroke="none"
   d=" M209.003326,121.832474   C203.608292,128.137344 198.111496,134.023270 193.040329,139.453415   C187.796463,134.617661 182.832214,130.039749 177.686295,125.294296   C179.218842,123.403938 180.448837,121.886772 181.990845,120.213852   C189.726166,120.038567 197.150665,119.944092 204.571732,120.063934   C206.021896,120.087357 207.458633,120.942169 209.003326,121.832474  z"
   id="path75" />
<path
   fill="#E5D189"
   opacity="1.000000"
   stroke="none"
   d=" M237.259491,65.873352   C237.007980,65.249893 237.042908,64.493820 237.070984,63.359108   C237.224716,63.900555 237.385315,64.820641 237.259491,65.873352  z"
   id="path76" />
<path
   fill="#E5D189"
   opacity="1.000000"
   stroke="none"
   d=" M256.953461,80.723106   C256.391479,80.550064 255.804001,80.065605 255.205658,79.264008   C255.772537,79.435143 256.350250,79.923416 256.953461,80.723106  z"
   id="path77" />
<path
   fill="#E5D189"
   opacity="1.000000"
   stroke="none"
   d=" M225.180496,77.854080   C225.117371,77.440514 225.304657,76.895187 225.776093,76.275436   C225.850464,76.708107 225.640686,77.215210 225.180496,77.854080  z"
   id="path78" />
<path
   fill="#E5D189"
   opacity="1.000000"
   stroke="none"
   d=" M253.774796,78.518051   C253.898254,78.611099 253.470322,78.844505 253.230957,78.889565   C253.086502,78.570061 253.306412,78.400192 253.774796,78.518051  z"
   id="path79" />
<path
   fill="#E5D189"
   opacity="1.000000"
   stroke="none"
   d=" M252.729767,79.104797   C252.881882,79.329071 252.714691,79.593407 252.215424,79.883392   C252.089951,79.669182 252.265656,79.414467 252.729767,79.104797  z"
   id="path80" />
<path
   fill="#E5D189"
   opacity="1.000000"
   stroke="none"
   d=" M251.766022,80.106400   C251.931671,80.345474 251.761398,80.619186 251.239670,80.908066   C251.102066,80.676941 251.282700,80.416206 251.766022,80.106400  z"
   id="path81" />
<path
   fill="#E5D189"
   opacity="1.000000"
   stroke="none"
   d=" M258.864563,83.580841   C258.647064,83.811020 258.417786,83.714867 258.247528,83.239258   C258.448792,83.121941 258.630890,83.253517 258.864563,83.580841  z"
   id="path82" />
<path
   fill="#E5D189"
   opacity="1.000000"
   stroke="none"
   d=" M70.561821,76.135086   C70.771179,76.339218 70.677986,76.553329 70.232330,76.710464   C70.128075,76.523544 70.254532,76.354073 70.561821,76.135086  z"
   id="path83" />
<path
   fill="#E5D189"
   opacity="1.000000"
   stroke="none"
   d=" M80.595474,67.140106   C80.833466,67.364464 80.729774,67.607681 80.234749,67.810226   C80.104759,67.604836 80.241554,67.401299 80.595474,67.140106  z"
   id="path84" />
<path
   fill="#E5D189"
   opacity="1.000000"
   stroke="none"
   d=" M66.730331,80.077194   C66.918152,80.321190 66.777069,80.578133 66.262772,80.775909   C66.145142,80.538162 66.315758,80.329292 66.730331,80.077194  z"
   id="path85" />


<path
   fill="#FCFCFB"
   opacity="1.000000"
   stroke="none"
   d=" M747.531677,274.458008   C748.225586,272.766022 748.775391,271.426910 749.464539,269.748627   C750.899536,273.867706 752.188538,277.567719 753.558777,281.500824   C750.667542,281.500824 748.205505,281.500824 745.197510,281.500824   C745.987671,279.087219 746.687622,276.949066 747.531677,274.458008  z"
   id="path88" />

<path
   fill="#CCB672"
   opacity="1.000000"
   stroke="none"
   d=" M31.633492,171.227661   C32.122559,171.536743 32.388672,172.016632 32.586018,172.782166   C32.180706,173.053024 31.844166,173.038239 31.254366,173.016602   C31.137585,172.472672 31.274063,171.935562 31.633492,171.227661  z"
   id="path90" />
<path
   fill="#B8A364"
   opacity="1.000000"
   stroke="none"
   d=" M286.994110,197.938934   C286.773834,197.481979 286.760986,196.943802 286.986664,196.242065   C287.217316,196.671555 287.209442,197.264633 286.994110,197.938934  z"
   id="path91" />
<path
   fill="#DCC67D"
   opacity="1.000000"
   stroke="none"
   d=" M35.950272,136.325531   C35.946297,136.164917 36.355156,136.369720 36.355156,136.369720   C36.355156,136.369720 36.255112,136.743698 36.097046,136.775391   C35.938976,136.807068 35.954243,136.486130 35.950272,136.325531  z"
   id="path92" />
<path
   fill="#A48E52"
   opacity="1.000000"
   stroke="none"
   d=" M48.916748,231.573700   C49.420204,232.002747 49.950359,232.721069 50.424900,233.729416   C49.894009,233.300629 49.418728,232.581802 48.916748,231.573700  z"
   id="path93" />
<path
   fill="#E2CD87"
   opacity="1.000000"
   stroke="none"
   d=" M123.775063,120.103668   C122.671623,119.495735 121.568176,118.887810 120.099503,118.078659   C119.901924,120.879791 119.742180,123.144485 118.884598,125.710464   C111.884743,126.019875 105.582718,126.028008 99.280701,126.036140   C99.280701,108.951889 99.280701,91.867645 99.280701,74.835983   C109.329796,72.166077 114.542587,74.183678 120.933838,82.564323   C129.399445,93.665001 138.057800,104.618607 146.612442,115.651604   C147.010956,116.165573 147.206085,116.837250 147.217712,117.743179   C145.056442,118.113708 143.163528,118.075462 141.292160,118.258102   C135.448746,118.828423 129.613480,119.482231 123.775063,120.103668  z"
   id="path94" />
<path
   fill="#A59056"
   opacity="1.000000"
   stroke="none"
   d=" M216.121521,206.762939   C216.876968,207.464020 217.632416,208.165115 218.725830,209.303223   C219.495605,210.029953 219.927414,210.319656 220.359207,210.609344   C220.564896,210.070892 220.770569,209.532425 220.993958,208.734619   C220.840012,208.004013 220.668350,207.532761 220.496674,207.061523   C220.457809,206.622330 220.418961,206.183121 220.578583,205.435608   C220.777069,205.127289 220.991348,205.111954 221.270416,205.369919   C227.528946,206.323822 233.508408,207.019775 239.519913,207.719452   C239.904205,210.469360 240.284637,213.191650 240.665070,215.913925   C240.716705,217.992615 240.768356,220.071304 240.360168,222.594391   C230.590622,223.358871 221.275986,223.585022 211.975296,224.075790   C210.041183,224.177826 208.158783,225.260162 206.252548,225.890717   C201.885986,220.482208 197.519424,215.073700 193.455170,209.169434   C198.864914,208.448654 203.979004,208.317688 209.076828,207.956863   C211.441391,207.789490 213.774277,207.174820 216.121521,206.762939  z"
   id="path95" />
<path
   fill="#9A864C"
   opacity="1.000000"
   stroke="none"
   d=" M206.306793,226.218033   C208.158783,225.260162 210.041183,224.177826 211.975296,224.075790   C221.275986,223.585022 230.590622,223.358871 240.261978,223.029343   C240.623642,230.442276 240.623642,237.864655 240.623642,245.848495   C234.448242,245.848495 228.494003,246.183929 222.618530,245.651047   C220.774277,245.483795 218.834015,243.225250 217.470917,241.502121   C213.619644,236.633591 210.044800,231.546387 206.306793,226.218033  z"
   id="path96" />
<path
   fill="#AB9658"
   opacity="1.000000"
   stroke="none"
   d=" M99.340836,213.010468   C99.286530,208.654617 99.232231,204.298752 99.700493,199.479034   C106.529938,198.669342 112.836815,198.323502 119.143700,197.977661   C119.215157,200.610535 119.286606,203.243423 119.288956,206.517059   C119.461594,207.114532 119.703339,207.071213 119.945084,207.027893   C122.384743,204.757614 124.824387,202.487335 127.986053,200.145325   C133.095459,200.230347 137.526688,200.845474 141.859436,200.431061   C147.637497,199.878418 151.499008,201.233414 151.982361,204.954712   C151.731064,205.229889 151.479752,205.505051 150.801605,205.970398   C150.179474,206.328613 150.038239,206.533844 149.951019,206.776260   C147.838608,209.104263 145.726212,211.432266 142.948853,213.723053   C139.907089,213.123917 137.523865,212.055511 135.154526,212.085464   C123.214630,212.236374 111.278366,212.673676 99.340836,213.010468  z"
   id="path97" />
<path
   fill="#AF9A5D"
   opacity="1.000000"
   stroke="none"
   d=" M216.061981,206.421265   C213.774277,207.174820 211.441391,207.789490 209.076828,207.956863   C203.979004,208.317688 198.864914,208.448654 193.372070,208.838745   C189.732605,205.086670 186.478516,201.169540 183.062531,196.821976   C182.900620,196.391541 182.641190,196.037384 182.641190,196.037384   C181.640106,194.663269 180.639008,193.289154 179.928650,191.492401   C188.028030,190.726303 195.836700,190.382858 203.645370,190.039413   C207.764389,195.386139 211.883408,200.732864 216.061981,206.421265  z"
   id="path98" />
<path
   fill="#A48E52"
   opacity="1.000000"
   stroke="none"
   d=" M99.258614,213.462311   C111.278366,212.673676 123.214630,212.236374 135.154526,212.085464   C137.523865,212.055511 139.907089,213.123917 142.635803,213.839996   C140.145264,216.929550 137.302872,219.864960 133.941925,222.951660   C133.194107,223.256882 133.032257,223.463608 132.937805,223.723114   C132.785080,224.052719 132.632355,224.382339 131.891693,224.706512   C128.905121,224.146515 126.501068,223.100143 124.108879,223.126602   C115.851372,223.217896 107.597992,223.683334 99.343040,224.006317   C99.287498,220.642258 99.231949,217.278214 99.258614,213.462311  z"
   id="path99" />
<path
   fill="#BAA666"
   opacity="1.000000"
   stroke="none"
   d=" M203.657867,189.699799   C195.836700,190.382858 188.028030,190.726303 179.740784,191.162827   C175.263794,186.362274 171.265366,181.468628 167.160080,175.841339   C168.295944,174.405228 169.524124,173.128326 170.783813,173.096451   C177.436203,172.928085 184.096527,173.073380 190.754089,173.109894   C190.754089,173.109879 190.887833,173.070053 190.927185,173.454163   C191.542877,174.562485 192.119186,175.286697 192.695496,176.010910   C196.353790,180.460663 200.012070,184.910416 203.657867,189.699799  z"
   id="path100" />
<path
   fill="#9C884F"
   opacity="1.000000"
   stroke="none"
   d=" M99.260971,224.398285   C107.597992,223.683334 115.851372,223.217896 124.108879,223.126602   C126.501068,223.100143 128.905121,224.146515 131.657410,224.854370   C126.554390,230.605118 121.097687,236.202560 115.314041,241.883209   C115.393120,238.942749 114.117615,237.957916 111.056366,237.921799   C104.609177,237.845703 98.167145,237.333984 91.289551,236.969879   C92.754890,234.892746 94.878548,233.006363 96.479927,230.749405   C97.718643,229.003586 98.303413,226.793777 99.260971,224.398285  z"
   id="path101" />
<path
   fill="#D7C17A"
   opacity="1.000000"
   stroke="none"
   d=" M99.210274,126.497223   C105.582718,126.028008 111.884743,126.019875 118.668770,126.026131   C119.177513,132.043961 119.204239,138.047424 118.696823,144.522079   C111.876404,145.003265 105.590149,145.013245 99.303886,145.023209   C99.249207,139.001572 99.194527,132.979950 99.210274,126.497223  z"
   id="path102" />
<path
   fill="#B8A364"
   opacity="1.000000"
   stroke="none"
   d=" M220.991348,205.111954   C220.991348,205.111954 220.777069,205.127289 220.671188,205.116119   C220.490936,194.721008 220.416565,184.337067 220.882721,173.486542   C227.828171,173.024414 234.233109,173.028885 240.638031,173.033356   C240.700790,178.389130 240.763535,183.744904 240.288788,189.556305   C234.769058,190.008453 229.783783,190.108215 224.805832,189.960648   C222.064087,189.879379 220.867493,190.785934 220.985672,193.654739   C221.142731,197.467407 221.003357,201.292313 220.991348,205.111954  z"
   id="path103" />
<path
   fill="#C0AB67"
   opacity="1.000000"
   stroke="none"
   d=" M119.131485,162.976654   C119.181244,168.670624 119.231003,174.364578 118.741241,180.526642   C111.910309,181.336060 105.618881,181.677368 99.327461,182.018677   C99.274971,175.998260 99.222481,169.977859 99.688049,163.487350   C106.514572,163.003723 112.823029,162.990189 119.131485,162.976654  z"
   id="path104" />
<path
   fill="#CCB672"
   opacity="1.000000"
   stroke="none"
   d=" M119.192871,162.513916   C112.823029,162.990189 106.514572,163.003723 99.763100,163.027588   C99.263199,157.340332 99.206314,151.642776 99.226654,145.484207   C105.590149,145.013245 111.876404,145.003265 118.642960,144.986847   C119.166924,150.670654 119.210587,156.360916 119.192871,162.513916  z"
   id="path105" />
<path
   fill="#C3AE6B"
   opacity="1.000000"
   stroke="none"
   d=" M190.666992,172.787842   C184.096527,173.073380 177.436203,172.928085 170.783813,173.096451   C169.524124,173.128326 168.295944,174.405228 167.040802,175.516815   C163.038010,170.856216 159.047638,165.786453 155.447632,160.364716   C163.634857,159.642807 171.431747,159.272888 179.228622,158.902954   C183.012375,163.423904 186.796143,167.944839 190.666992,172.787842  z"
   id="path106" />
<path
   fill="#B49F62"
   opacity="1.000000"
   stroke="none"
   d=" M99.248337,182.479218   C105.618881,181.677368 111.910309,181.336060 118.668091,180.989304   C119.190590,186.341721 119.246735,191.699585 119.223282,197.517548   C112.836815,198.323502 106.529938,198.669342 99.779625,199.022552   C99.280533,193.666519 99.224869,188.303131 99.248337,182.479218  z"
   id="path107" />
<path
   fill="#AF9A5D"
   opacity="1.000000"
   stroke="none"
   d=" M221.270416,205.369919   C221.003357,201.292313 221.142731,197.467407 220.985672,193.654739   C220.867493,190.785934 222.064087,189.879379 224.805832,189.960648   C229.783783,190.108215 234.769058,190.008453 240.192505,190.015411   C240.706268,198.348602 240.778809,206.678299 240.758209,215.460953   C240.284637,213.191650 239.904205,210.469360 239.519913,207.719452   C233.508408,207.019775 227.528946,206.323822 221.270416,205.369919  z"
   id="path108" />
<path
   fill="#B49F62"
   opacity="1.000000"
   stroke="none"
   d=" M152.304504,204.863312   C151.499008,201.233414 147.637497,199.878418 141.859436,200.431061   C137.526688,200.845474 133.095459,200.230347 128.284668,200.004913   C133.600845,194.518066 139.340424,189.099915 145.512955,183.273071   C149.618881,187.958023 154.147964,193.125839 159.032455,198.699173   C157.599579,200.057541 155.113129,202.414734 152.304504,204.863312  z"
   id="path109" />
<path
   fill="#D4BE77"
   opacity="1.000000"
   stroke="none"
   d=" M240.692871,129.056076   C240.739746,133.736893 240.786621,138.417725 240.302872,143.553619   C233.363678,144.010040 226.955093,144.011368 220.546524,144.012695   C220.462051,139.006271 220.377579,133.999847 220.772247,128.533569   C227.731873,128.401169 234.212387,128.728622 240.692871,129.056076  z"
   id="path110" />
<path
   fill="#C3AE6B"
   opacity="1.000000"
   stroke="none"
   d=" M240.736115,172.573486   C234.233109,173.028885 227.828171,173.024414 221.003845,173.038467   C220.497147,168.352692 220.409821,163.648392 220.860992,158.480560   C227.815170,158.021408 234.230865,158.025803 240.646545,158.030212   C240.709091,162.724686 240.771637,167.419159 240.736115,172.573486  z"
   id="path111" />
<path
   fill="#CCB672"
   opacity="1.000000"
   stroke="none"
   d=" M240.742538,157.571625   C234.230865,158.025803 227.815170,158.021408 220.979187,158.033493   C220.470306,153.671341 220.381744,149.292694 220.419861,144.463379   C226.955093,144.011368 233.363678,144.010040 240.211731,144.011780   C240.713638,148.380905 240.776077,152.746994 240.742538,157.571625  z"
   id="path112" />
<path
   fill="#D1BB76"
   opacity="1.000000"
   stroke="none"
   d=" M163.929733,139.026306   C166.513229,142.147781 169.096710,145.269257 171.359879,148.714142   C166.670853,149.358185 162.298462,149.636185 157.934631,150.013123   C154.562927,150.304352 151.201920,150.719559 147.836166,151.079636   C145.142700,147.674698 142.449249,144.269760 140.058075,140.452072   C148.216827,139.701645 156.073288,139.363968 163.929733,139.026306  z"
   id="path113" />
<path
   fill="#DDC77E"
   opacity="1.000000"
   stroke="none"
   d=" M123.877655,120.438431   C129.613480,119.482231 135.448746,118.828423 141.292160,118.258102   C143.163528,118.075462 145.056442,118.113708 147.302032,118.061096   C150.103882,121.140938 152.543213,124.210564 154.608521,127.644958   C149.875626,128.340012 145.511505,128.614029 141.159622,129.019302   C137.961243,129.317154 134.778885,129.786911 131.589386,130.180069   C129.053009,127.044441 126.516624,123.908821 123.877655,120.438431  z"
   id="path114" />
<path
   fill="#D7C17A"
   opacity="1.000000"
   stroke="none"
   d=" M131.713348,130.510559   C134.778885,129.786911 137.961243,129.317154 141.159622,129.019302   C145.511505,128.614029 149.875626,128.340012 154.666656,127.989349   C157.978485,131.439194 160.858124,134.909393 163.833755,138.702942   C156.073288,139.363968 148.216827,139.701645 139.891724,140.140533   C136.894470,137.108170 134.365891,133.974625 131.713348,130.510559  z"
   id="path115" />
<path
   fill="#CCB672"
   opacity="1.000000"
   stroke="none"
   d=" M147.914124,151.368439   C151.201920,150.719559 154.562927,150.304352 157.934631,150.013123   C162.298462,149.636185 166.670853,149.358185 171.450470,149.035507   C174.255310,152.099243 176.649231,155.165039 179.135895,158.566895   C171.431747,159.272888 163.634857,159.642807 155.359589,160.021545   C153.649445,158.605255 152.417694,157.180145 151.051575,155.129105   C150.320358,153.989426 149.723526,153.475677 149.126694,152.961945   C148.748489,152.527039 148.370285,152.092133 147.914124,151.368439  z"
   id="path116" />
<path
   fill="#DAC78C"
   opacity="1.000000"
   stroke="none"
   d=" M240.787231,128.590607   C234.212387,128.728622 227.731873,128.401169 220.874786,128.084747   C226.823975,121.343819 233.149750,114.591858 239.475525,107.839897   C239.944214,108.072960 240.412888,108.306023 240.881561,108.539093   C240.881561,115.067764 240.881561,121.596443 240.787231,128.590607  z"
   id="path117" />
<path
   fill="#C3AE6B"
   opacity="1.000000"
   stroke="none"
   d=" M192.714630,175.699615   C192.119186,175.286697 191.542877,174.562485 190.937134,173.523224   C191.516403,173.934891 192.125076,174.661606 192.714630,175.699615  z"
   id="path118" />
<path
   fill="#DAC78C"
   opacity="1.000000"
   stroke="none"
   d=" M220.976257,208.993958   C220.770569,209.532425 220.564896,210.070892 220.359207,210.609344   C219.927414,210.319656 219.495605,210.029953 219.003876,209.445374   C219.128296,209.115906 219.312668,209.081284 220.006927,209.013184   C220.516815,208.979721 220.976257,208.993958 220.976257,208.993958  z"
   id="path119" />
<path
   fill="#D1BB76"
   opacity="1.000000"
   stroke="none"
   d=" M149.155136,153.276398   C149.723526,153.475677 150.320358,153.989426 150.926804,154.832474   C150.352142,154.638138 149.767853,154.114502 149.155136,153.276398  z"
   id="path120" />
<path
   fill="#C3AE6B"
   opacity="1.000000"
   stroke="none"
   d=" M220.993958,208.734619   C220.976257,208.993958 220.516815,208.979721 220.287613,208.993073   C220.113937,208.562393 220.169464,208.118378 220.360840,207.367935   C220.668350,207.532761 220.840012,208.004013 220.993958,208.734619  z"
   id="path121" />
<path
   fill="#9C884F"
   opacity="1.000000"
   stroke="none"
   d=" M106.276375,250.983521   C106.094444,250.718079 106.268883,250.441895 106.763313,250.112518   C106.833420,250.300827 106.683228,250.605301 106.276375,250.983521  z"
   id="path122" />
<path
   fill="#B8A364"
   opacity="1.000000"
   stroke="none"
   d=" M133.128189,223.654572   C133.032257,223.463608 133.194107,223.256882 133.605927,223.023834   C133.712234,223.217422 133.555603,223.431198 133.128189,223.654572  z"
   id="path123" />
<path
   fill="#E2CD87"
   opacity="1.000000"
   stroke="none"
   d=" M119.818779,206.923645   C119.703339,207.071213 119.461594,207.114532 119.296890,206.950470   C119.373932,206.743118 119.692474,206.819382 119.818779,206.923645  z"
   id="path124" />
<path
   fill="#b8a364"
   opacity="1"
   stroke="none"
   d="m 150.13509,206.70149 c -0.0968,-0.16765 0.0444,-0.37288 0.39509,-0.64612 0.14684,0.18187 0.0247,0.40738 -0.39509,0.64612 z"
   id="path125"
   style="display:inline" />
<path
   fill="#baa666"
   opacity="1"
   stroke="none"
   d="m 182.58609,196.18008 c 0.0551,-0.1427 0.31453,0.21146 0.38052,0.29801 -0.17526,0.15852 -0.34246,0.0779 -0.38052,-0.29801 z"
   id="path126"
   style="display:inline" />
</svg>
